<svg version="1.2" xmlns="http://www.w3.org/2000/svg" viewBox="0 0 396 396" width="396" height="396"><style>.a{fill:#4e4e4e;stroke:#000;stroke-linecap:round;stroke-linejoin:round}.b{fill:#4e4e4e}.c{opacity:.17;fill:#4e4e4e}.d{fill:#4e4e4e;stroke:#46505c;stroke-linecap:round;stroke-linejoin:round;stroke-width:4}.e{fill:#4e4e4e;stroke:#46505c;stroke-linecap:round;stroke-linejoin:round}.f{fill:#4e4e4e;stroke:#e6f3ff;stroke-miterlimit:10;stroke-width:2}.g{fill:#4e4e4e;stroke:#626c84;stroke-linecap:round;stroke-linejoin:round}.h{opacity:.25;fill:#4e4e4e}.i{fill:#4e4e4e;stroke:#46505c;stroke-linecap:round;stroke-linejoin:round;stroke-width:2}.j{fill:#fff;stroke:#e6f3ff;stroke-miterlimit:10;stroke-width:2}.k{opacity:.18;fill:#4e4e4e;stroke:#46505c;stroke-linecap:round;stroke-linejoin:round;stroke-width:4}.l{fill:none;stroke:#46505c;stroke-linecap:round;stroke-linejoin:round;stroke-width:4}.m{opacity:.33;fill:#845b5b}.n{fill:none;stroke:#000;stroke-linecap:round;stroke-linejoin:round}.o{fill:#626c84}.p{opacity:.17;fill:#626c84}.q{opacity:.1;fill:#fff}.r{fill:#fff}.s{fill:#8579b4}.t{fill:none;stroke:#46505c;stroke-linecap:round;stroke-linejoin:round}.u{fill:#e6f3ff}.v{fill:none;stroke:#626c84;stroke-linecap:round;stroke-linejoin:round}.w{opacity:.12;fill:#fff}.x{opacity:.25;fill:#626c84}.y{fill:none;stroke:#46505c;stroke-linecap:round;stroke-linejoin:round;stroke-width:2}.z{opacity:.52;fill:#fff}.A{fill:none;stroke:#fff;stroke-miterlimit:10}.B{opacity:.33;fill:#4e4e4e;stroke:#46505c;stroke-linecap:round;stroke-linejoin:round;stroke-width:4}.C{fill:#845b5b}</style><g style="opacity:.33"><path class="a" d="m135.5 151.2h232c7.7 0 14 6.3 14 14v17.5c0 7.7-6.3 14-14 14h-232c-7.8 0-14-6.3-14-14v-17.5c0-7.7 6.2-14 14-14z"/><path class="b" d="m135.5 151.2h232c7.7 0 14 6.3 14 14v17.5c0 7.7-6.3 14-14 14h-232c-7.8 0-14-6.3-14-14v-17.5c0-7.7 6.2-14 14-14z"/><path class="c" d="m135.5 151.2h232c7.7 0 14 6.3 14 14v20.5c0 4.7-3.9 8.5-8.6 8.5h-242.9c-4.7 0-8.5-3.8-8.5-8.5v-20.5c0-7.7 6.2-14 14-14z"/><path class="d" d="m135.5 151.2h232c7.7 0 14 6.3 14 14v17.5c0 7.7-6.3 14-14 14h-232c-7.8 0-14-6.3-14-14v-17.5c0-7.7 6.2-14 14-14z"/><path fill-rule="evenodd" class="b" d="m139.5 156.4h224v34.9h-224z"/><path fill-rule="evenodd" class="e" d="m139.5 156.4h224v34.9h-224z"/><path class="b" d="m135.5 196.7h232c7.7 0 14 6.3 14 14v144c0 7.7-6.3 14-14 14h-232c-7.8 0-14-6.3-14-14v-144c0-7.7 6.2-14 14-14z"/><path class="f" d="m377.5 210.7v144c0 5.5-4.5 10-10 10h-232c-5.5 0-10-4.5-10-10v-144c0-5.5 4.5-10 10-10h232c5.5 0 10 4.5 10 10z"/><path class="b" d="m235.4 360.9h32.1c2.2 0 4 1.8 4 4v3.8h-40.1v-3.8c0-2.2 1.8-4 4-4z"/><path class="d" d="m135.5 196.7h232c7.7 0 14 6.3 14 14v144c0 7.7-6.3 14-14 14h-232c-7.8 0-14-6.3-14-14v-144c0-7.7 6.2-14 14-14z"/><path class="b" d="m139.5 210.1h224c1.6 0 3 1.4 3 3v86c0 1.7-1.4 3-3 3h-224c-1.7 0-3-1.3-3-3v-86c0-1.6 1.3-3 3-3z"/><path class="g" d="m168.6 279.6h12c0.5 0 1 0.5 1 1v12c0 0.6-0.5 1-1 1h-12c-0.6 0-1-0.4-1-1v-12c0-0.5 0.4-1 1-1z"/><path class="g" d="m146.9 279.6h12c0.6 0 1 0.5 1 1v12c0 0.6-0.4 1-1 1h-12c-0.5 0-1-0.4-1-1v-12c0-0.5 0.5-1 1-1z"/><path class="g" d="m190.2 279.6h98.6c0.5 0 1 0.5 1 1v12c0 0.6-0.5 1-1 1h-98.6c-0.6 0-1-0.4-1-1v-12c0-0.5 0.4-1 1-1z"/><path class="g" d="m298.4 279.6h12c0.5 0 1 0.5 1 1v12c0 0.6-0.5 1-1 1h-12c-0.6 0-1-0.4-1-1v-12c0-0.5 0.4-1 1-1z"/><path class="g" d="m334 287.5h8c0.6 0 1 0.4 1 1v4.1c0 0.6-0.4 1-1 1h-8c-0.5 0-1-0.4-1-1v-4.1c0-0.6 0.5-1 1-1z"/><path class="g" d="m334 279.6h8c0.6 0 1 0.5 1 1v4.2c0 0.5-0.4 1-1 1h-8c-0.5 0-1-0.5-1-1v-4.2c0-0.5 0.5-1 1-1z"/><path class="g" d="m348 287.5h8c0.6 0 1 0.4 1 1v4.1c0 0.6-0.4 1-1 1h-8c-0.5 0-1-0.4-1-1v-4.1c0-0.6 0.5-1 1-1z"/><path class="g" d="m320 287.5h8c0.6 0 1 0.4 1 1v4.1c0 0.6-0.4 1-1 1h-8c-0.5 0-1-0.4-1-1v-4.1c0-0.6 0.5-1 1-1z"/><path class="g" d="m146.9 259.7h31.7c0.5 0 1 0.5 1 1v12c0 0.6-0.5 1-1 1h-31.7c-0.5 0-1-0.4-1-1v-12c0-0.5 0.5-1 1-1z"/><path class="g" d="m188.4 259.7h12c0.5 0 1 0.5 1 1v12c0 0.6-0.5 1-1 1h-12c-0.6 0-1-0.4-1-1v-12c0-0.5 0.4-1 1-1z"/><path class="g" d="m210 259.7h12c0.6 0 1 0.5 1 1v12c0 0.6-0.4 1-1 1h-12c-0.5 0-1-0.4-1-1v-12c0-0.5 0.5-1 1-1z"/><path class="g" d="m231.7 259.7h12c0.5 0 1 0.5 1 1v12c0 0.6-0.5 1-1 1h-12c-0.6 0-1-0.4-1-1v-12c0-0.5 0.4-1 1-1z"/><path class="g" d="m253.3 259.7h12c0.5 0 1 0.5 1 1v12c0 0.6-0.5 1-1 1h-12c-0.6 0-1-0.4-1-1v-12c0-0.5 0.4-1 1-1z"/><path class="g" d="m274.9 259.7h12c0.6 0 1 0.5 1 1v12c0 0.6-0.4 1-1 1h-12c-0.5 0-1-0.4-1-1v-12c0-0.5 0.5-1 1-1z"/><path class="g" d="m296.6 259.7h12c0.5 0 1 0.5 1 1v12c0 0.6-0.5 1-1 1h-12c-0.6 0-1-0.4-1-1v-12c0-0.5 0.4-1 1-1z"/><path class="g" d="m320 259.7h36c0.6 0 1 0.5 1 1v12c0 0.6-0.4 1-1 1h-36c-0.5 0-1-0.4-1-1v-12c0-0.5 0.5-1 1-1z"/><path class="g" d="m180.6 239.2h12c0.5 0 1 0.5 1 1v12c0 0.6-0.5 1-1 1h-12c-0.6 0-1-0.4-1-1v-12c0-0.5 0.4-1 1-1z"/><path class="g" d="m146.9 239.2h24c0.6 0 1 0.5 1 1v12c0 0.6-0.4 1-1 1h-24c-0.5 0-1-0.4-1-1v-12c0-0.5 0.5-1 1-1z"/><path class="g" d="m202.2 239.2h12c0.6 0 1 0.5 1 1v12c0 0.6-0.4 1-1 1h-12c-0.6 0-1-0.4-1-1v-12c0-0.5 0.4-1 1-1z"/><path class="g" d="m223.8 239.2h12c0.6 0 1 0.5 1 1v12c0 0.6-0.4 1-1 1h-12c-0.5 0-1-0.4-1-1v-12c0-0.5 0.5-1 1-1z"/><path class="g" d="m245.5 239.2h12c0.5 0 1 0.5 1 1v12c0 0.6-0.5 1-1 1h-12c-0.6 0-1-0.4-1-1v-12c0-0.5 0.4-1 1-1z"/><path class="g" d="m267.1 239.2h12c0.6 0 1 0.5 1 1v12c0 0.6-0.4 1-1 1h-12c-0.5 0-1-0.4-1-1v-12c0-0.5 0.5-1 1-1z"/><path class="g" d="m288.8 239.2h11.9c0.6 0 1 0.5 1 1v12c0 0.6-0.4 1-1 1h-12c-0.5 0-1-0.4-1-1v-12c0-0.5 0.5-1 1-1z"/><path class="g" d="m310.4 239.2h12c0.5 0 1 0.5 1 1v12c0 0.6-0.5 1-1 1h-12c-0.6 0-1-0.4-1-1v-12c0-0.5 0.4-1 1-1z"/><path class="g" d="m332 239.2h24c0.6 0 1 0.5 1 1v12c0 0.6-0.4 1-1 1h-24c-0.5 0-1-0.4-1-1v-12c0-0.5 0.5-1 1-1z"/><path class="g" d="m168.8 219.6h12c0.6 0 1 0.5 1 1v12c0 0.6-0.4 1-1 1h-12c-0.5 0-1-0.4-1-1v-12c0-0.5 0.5-1 1-1z"/><path class="g" d="m146.9 219.6h12c0.6 0 1 0.5 1 1v12c0 0.6-0.4 1-1 1h-12c-0.5 0-1-0.4-1-1v-12c0-0.5 0.5-1 1-1z"/><path class="g" d="m190.7 219.6h12c0.6 0 1 0.5 1 1v12c0 0.6-0.4 1-1 1h-12c-0.5 0-1-0.4-1-1v-12c0-0.5 0.5-1 1-1z"/><path class="g" d="m212.6 219.6h12c0.6 0 1 0.5 1 1v12c0 0.6-0.4 1-1 1h-12c-0.5 0-1-0.4-1-1v-12c0-0.5 0.5-1 1-1z"/><path class="g" d="m234.5 219.6h12c0.6 0 1 0.5 1 1v12c0 0.6-0.4 1-1 1h-12c-0.5 0-1-0.4-1-1v-12c0-0.5 0.5-1 1-1z"/><path class="g" d="m256.4 219.6h12c0.6 0 1 0.5 1 1v12c0 0.6-0.4 1-1 1h-12c-0.5 0-1-0.4-1-1v-12c0-0.5 0.5-1 1-1z"/><path class="g" d="m278.3 219.6h12c0.6 0 1 0.5 1 1v12c0 0.6-0.4 1-1 1h-12c-0.5 0-1-0.4-1-1v-12c0-0.5 0.5-1 1-1z"/><path class="g" d="m300.2 219.6h12c0.6 0 1 0.5 1 1v12c0 0.6-0.4 1-1 1h-12c-0.5 0-1-0.4-1-1v-12c0-0.5 0.5-1 1-1z"/><path class="g" d="m322.1 219.6h12c0.6 0 1 0.5 1 1v12c0 0.6-0.4 1-1 1h-12c-0.5 0-1-0.4-1-1v-12c0-0.5 0.5-1 1-1z"/><path class="g" d="m344 219.6h12c0.6 0 1 0.5 1 1v12c0 0.6-0.4 1-1 1h-12c-0.5 0-1-0.4-1-1v-12c0-0.5 0.5-1 1-1z"/><path class="b" d="m168.6 279.6h12c0.5 0 1 0.5 1 1v12c0 0.6-0.5 1-1 1h-12c-0.6 0-1-0.4-1-1v-12c0-0.5 0.4-1 1-1z"/><path class="b" d="m146.9 279.6h12c0.6 0 1 0.5 1 1v12c0 0.6-0.4 1-1 1h-12c-0.5 0-1-0.4-1-1v-12c0-0.5 0.5-1 1-1z"/><path class="b" d="m190.2 279.6h98.6c0.5 0 1 0.5 1 1v12c0 0.6-0.5 1-1 1h-98.6c-0.6 0-1-0.4-1-1v-12c0-0.5 0.4-1 1-1z"/><path class="b" d="m298.4 279.6h12c0.5 0 1 0.5 1 1v12c0 0.6-0.5 1-1 1h-12c-0.6 0-1-0.4-1-1v-12c0-0.5 0.4-1 1-1z"/><path class="b" d="m334 287.5h8c0.6 0 1 0.4 1 1v4.1c0 0.6-0.4 1-1 1h-8c-0.5 0-1-0.4-1-1v-4.1c0-0.6 0.5-1 1-1z"/><path class="b" d="m334 279.6h8c0.6 0 1 0.5 1 1v4.2c0 0.5-0.4 1-1 1h-8c-0.5 0-1-0.5-1-1v-4.2c0-0.5 0.5-1 1-1z"/><path class="b" d="m348 287.5h8c0.6 0 1 0.4 1 1v4.1c0 0.6-0.4 1-1 1h-8c-0.5 0-1-0.4-1-1v-4.1c0-0.6 0.5-1 1-1z"/><path class="b" d="m320 287.5h8c0.6 0 1 0.4 1 1v4.1c0 0.6-0.4 1-1 1h-8c-0.5 0-1-0.4-1-1v-4.1c0-0.6 0.5-1 1-1z"/><path class="b" d="m146.9 259.7h31.7c0.5 0 1 0.5 1 1v12c0 0.6-0.5 1-1 1h-31.7c-0.5 0-1-0.4-1-1v-12c0-0.5 0.5-1 1-1z"/><path class="b" d="m188.4 259.7h12c0.5 0 1 0.5 1 1v12c0 0.6-0.5 1-1 1h-12c-0.6 0-1-0.4-1-1v-12c0-0.5 0.4-1 1-1z"/><path class="b" d="m210 259.7h12c0.6 0 1 0.5 1 1v12c0 0.6-0.4 1-1 1h-12c-0.5 0-1-0.4-1-1v-12c0-0.5 0.5-1 1-1z"/><path class="b" d="m231.7 259.7h12c0.5 0 1 0.5 1 1v12c0 0.6-0.5 1-1 1h-12c-0.6 0-1-0.4-1-1v-12c0-0.5 0.4-1 1-1z"/><path class="b" d="m253.3 259.7h12c0.5 0 1 0.5 1 1v12c0 0.6-0.5 1-1 1h-12c-0.6 0-1-0.4-1-1v-12c0-0.5 0.4-1 1-1z"/><path class="b" d="m274.9 259.7h12c0.6 0 1 0.5 1 1v12c0 0.6-0.4 1-1 1h-12c-0.5 0-1-0.4-1-1v-12c0-0.5 0.5-1 1-1z"/><path class="b" d="m296.6 259.7h12c0.5 0 1 0.5 1 1v12c0 0.6-0.5 1-1 1h-12c-0.6 0-1-0.4-1-1v-12c0-0.5 0.4-1 1-1z"/><path class="b" d="m320 259.7h36c0.6 0 1 0.5 1 1v12c0 0.6-0.4 1-1 1h-36c-0.5 0-1-0.4-1-1v-12c0-0.5 0.5-1 1-1z"/><path class="b" d="m180.6 239.2h12c0.5 0 1 0.5 1 1v12c0 0.6-0.5 1-1 1h-12c-0.6 0-1-0.4-1-1v-12c0-0.5 0.4-1 1-1z"/><path class="b" d="m146.9 239.2h24c0.6 0 1 0.5 1 1v12c0 0.6-0.4 1-1 1h-24c-0.5 0-1-0.4-1-1v-12c0-0.5 0.5-1 1-1z"/><path class="b" d="m202.2 239.2h12c0.6 0 1 0.5 1 1v12c0 0.6-0.4 1-1 1h-12c-0.6 0-1-0.4-1-1v-12c0-0.5 0.4-1 1-1z"/><path class="b" d="m223.8 239.2h12c0.6 0 1 0.5 1 1v12c0 0.6-0.4 1-1 1h-12c-0.5 0-1-0.4-1-1v-12c0-0.5 0.5-1 1-1z"/><path class="b" d="m245.5 239.2h12c0.5 0 1 0.5 1 1v12c0 0.6-0.5 1-1 1h-12c-0.6 0-1-0.4-1-1v-12c0-0.5 0.4-1 1-1z"/><path class="b" d="m267.1 239.2h12c0.6 0 1 0.5 1 1v12c0 0.6-0.4 1-1 1h-12c-0.5 0-1-0.4-1-1v-12c0-0.5 0.5-1 1-1z"/><path class="b" d="m288.8 239.2h11.9c0.6 0 1 0.5 1 1v12c0 0.6-0.4 1-1 1h-12c-0.5 0-1-0.4-1-1v-12c0-0.5 0.5-1 1-1z"/><path class="b" d="m310.4 239.2h12c0.5 0 1 0.5 1 1v12c0 0.6-0.5 1-1 1h-12c-0.6 0-1-0.4-1-1v-12c0-0.5 0.4-1 1-1z"/><path class="b" d="m332 239.2h24c0.6 0 1 0.5 1 1v12c0 0.6-0.4 1-1 1h-24c-0.5 0-1-0.4-1-1v-12c0-0.5 0.5-1 1-1z"/><path class="b" d="m168.8 219.6h12c0.6 0 1 0.5 1 1v12c0 0.6-0.4 1-1 1h-12c-0.5 0-1-0.4-1-1v-12c0-0.5 0.5-1 1-1z"/><path class="b" d="m146.9 219.6h12c0.6 0 1 0.5 1 1v12c0 0.6-0.4 1-1 1h-12c-0.5 0-1-0.4-1-1v-12c0-0.5 0.5-1 1-1z"/><path class="b" d="m190.7 219.6h12c0.6 0 1 0.5 1 1v12c0 0.6-0.4 1-1 1h-12c-0.5 0-1-0.4-1-1v-12c0-0.5 0.5-1 1-1z"/><path class="b" d="m212.6 219.6h12c0.6 0 1 0.5 1 1v12c0 0.6-0.4 1-1 1h-12c-0.5 0-1-0.4-1-1v-12c0-0.5 0.5-1 1-1z"/><path class="b" d="m234.5 219.6h12c0.6 0 1 0.5 1 1v12c0 0.6-0.4 1-1 1h-12c-0.5 0-1-0.4-1-1v-12c0-0.5 0.5-1 1-1z"/><path class="b" d="m256.4 219.6h12c0.6 0 1 0.5 1 1v12c0 0.6-0.4 1-1 1h-12c-0.5 0-1-0.4-1-1v-12c0-0.5 0.5-1 1-1z"/><path class="b" d="m278.3 219.6h12c0.6 0 1 0.5 1 1v12c0 0.6-0.4 1-1 1h-12c-0.5 0-1-0.4-1-1v-12c0-0.5 0.5-1 1-1z"/><path class="b" d="m300.2 219.6h12c0.6 0 1 0.5 1 1v12c0 0.6-0.4 1-1 1h-12c-0.5 0-1-0.4-1-1v-12c0-0.5 0.5-1 1-1z"/><path class="b" d="m322.1 219.6h12c0.6 0 1 0.5 1 1v12c0 0.6-0.4 1-1 1h-12c-0.5 0-1-0.4-1-1v-12c0-0.5 0.5-1 1-1z"/><path class="b" d="m344 219.6h12c0.6 0 1 0.5 1 1v12c0 0.6-0.4 1-1 1h-12c-0.5 0-1-0.4-1-1v-12c0-0.5 0.5-1 1-1z"/><path class="b" d="m166.5 187.7h170v13.5c0 2.2-1.8 4-4 4h-162c-2.2 0-4-1.8-4-4z"/><path class="h" d="m332.5 201.2h-162c-2.2 0-4-1.8-4-4v4c0 2.2 1.8 4 4 4h162c2.2 0 4-1.8 4-4v-4c0 2.2-1.8 4-4 4z"/><path class="i" d="m166.5 187.7h170v13.5c0 2.2-1.8 4-4 4h-162c-2.2 0-4-1.8-4-4z"/><path class="b" d="m216.5 307.1h70c1.1 0 2 0.9 2 2v47c0 1.1-0.9 2-2 2h-70c-1.1 0-2-0.9-2-2v-47c0-1.1 0.9-2 2-2z"/><path class="g" d="m216.5 307.1h70c1.1 0 2 0.9 2 2v47c0 1.1-0.9 2-2 2h-70c-1.1 0-2-0.9-2-2v-47c0-1.1 0.9-2 2-2z"/></g><path class="j" d="m23.9 288.7l7.7-11.1c0.2-0.3 0.7-0.3 1-0.1l7.9 5.5c0.3 0.2 0.4 0.6 0.1 0.9l-7.7 11.1c-1.6 2.2-4.7 2.8-6.9 1.2l-0.9-0.6c-2.2-1.5-2.8-4.7-1.2-6.9z"/><path class="k" d="m32.6 277.5c-0.3-0.3-0.8-0.2-1 0.1l-3.5 5q2 1.9 4.3 3.5 2.3 1.6 4.7 2.8l3.5-4.9c0.2-0.4 0.2-0.8-0.1-1z"/><path class="l" d="m23.9 288.7l7.7-11.1c0.2-0.3 0.7-0.3 1-0.1l7.9 5.5c0.3 0.2 0.4 0.6 0.1 0.9l-7.7 11.1c-1.6 2.2-4.7 2.8-6.9 1.2l-0.9-0.6c-2.2-1.5-2.8-4.7-1.2-6.9z"/><path fill-rule="evenodd" class="m" d="m58.5 275.3c-0.9 0-1.6-0.7-1.6-1.6 0-0.8 0.7-1.5 1.6-1.5 0.9 0 1.6 0.7 1.6 1.5 0 0.9-0.7 1.6-1.6 1.6z"/><path fill-rule="evenodd" class="m" d="m54.4 275.4c-0.6 0-1.1-0.5-1.1-1.1 0-0.6 0.5-1.1 1.1-1.1 0.6 0 1.1 0.5 1.1 1.1 0 0.6-0.5 1.1-1.1 1.1z"/><path fill-rule="evenodd" class="m" d="m62.2 273.3c-0.5 0-1-0.5-1-1 0-0.6 0.5-1 1-1 0.6 0 1 0.4 1 1 0 0.5-0.4 1-1 1z"/><path fill-rule="evenodd" class="m" d="m51 275.5c-0.4 0-0.7-0.4-0.7-0.8 0-0.4 0.3-0.7 0.7-0.7 0.4 0 0.7 0.3 0.7 0.7 0 0.4-0.3 0.8-0.7 0.8z"/><path fill-rule="evenodd" class="m" d="m65.3 271.7c-0.2 0-0.4-0.2-0.4-0.4 0-0.3 0.2-0.5 0.4-0.5 0.3 0 0.5 0.2 0.5 0.5 0 0.2-0.2 0.4-0.5 0.4z"/><path class="n" d="m127.5 23.3h232c7.8 0 14 6.3 14 14v136c0 7.7-6.2 14-14 14h-232c-7.7 0-14-6.3-14-14v-136c0-7.7 6.3-14 14-14z"/><path class="o" d="m127.5 23.3h232c7.8 0 14 6.3 14 14v136c0 7.7-6.2 14-14 14h-232c-7.7 0-14-6.3-14-14v-136c0-7.7 6.3-14 14-14z"/><path class="o" d="m127.5 23.3h232c7.8 0 14 6.3 14 14v136c0 7.7-6.2 14-14 14h-232c-7.7 0-14-6.3-14-14v-136c0-7.7 6.3-14 14-14z"/><path class="p" d="m127.5 23.3h232c7.8 0 14 6.3 14 14v127c0 7.7-6.2 14-14 14h-232c-7.7 0-14-6.3-14-14v-127c0-7.7 6.3-14 14-14z"/><path class="q" d="m127.5 27.3h232c7.8 0 14 6.3 14 14v132-136c0-7.7-6.2-14-14-14h-232c-7.7 0-14 6.3-14 14v4c0-7.7 6.3-14 14-14z"/><g style="opacity:.1"><path fill-rule="evenodd" class="r" d="m192.8 187.3h16l119.2-164h-16.1z"/><path fill-rule="evenodd" class="r" d="m218.1 187.3h4.9l119.2-164h-5z"/></g><path class="l" d="m127.5 23.3h232c7.8 0 14 6.3 14 14v136c0 7.7-6.2 14-14 14h-232c-7.7 0-14-6.3-14-14v-136c0-7.7 6.3-14 14-14z"/><path fill-rule="evenodd" class="s" d="m131.5 41.8h224v126h-224z"/><g style="opacity:.06"><path fill-rule="evenodd" class="r" d="m207.9 167.8h16.1l91.6-126h-16.1z"/><path fill-rule="evenodd" class="r" d="m233.3 167.8h4.9l91.6-126h-5z"/></g><path fill-rule="evenodd" class="t" d="m131.5 41.8h224v126h-224z"/><path class="u" d="m127.5 187.3h232c7.8 0 14 6.3 14 14v144c0 7.7-6.2 14-14 14h-232c-7.7 0-14-6.3-14-14v-144c0-7.7 6.3-14 14-14z"/><path class="j" d="m369.5 201.3v144c0 5.5-4.5 10-10 10h-232c-5.5 0-10-4.5-10-10v-144c0-5.5 4.5-10 10-10h232c5.6 0 10 4.5 10 10z"/><path class="u" d="m227.5 351.5h32.1c2.2 0 4 1.8 4 4v3.8h-40.1v-3.8c0-2.2 1.8-4 4-4z"/><path class="l" d="m127.5 187.3h232c7.8 0 14 6.3 14 14v144c0 7.7-6.2 14-14 14h-232c-7.7 0-14-6.3-14-14v-144c0-7.7 6.3-14 14-14z"/><path class="u" d="m131.5 200.7h224c1.7 0 3 1.4 3 3v86c0 1.7-1.3 3-3 3h-224c-1.6 0-3-1.3-3-3v-86c0-1.6 1.4-3 3-3z"/><path class="v" d="m160.6 270.2h12c0.6 0 1 0.5 1 1v12c0 0.6-0.4 1-1 1h-12c-0.5 0-1-0.4-1-1v-12c0-0.5 0.5-1 1-1z"/><path class="v" d="m139 270.2h12c0.5 0 1 0.5 1 1v12c0 0.6-0.5 1-1 1h-12c-0.6 0-1-0.4-1-1v-12c0-0.5 0.4-1 1-1z"/><path class="v" d="m182.3 270.2h98.5c0.6 0 1 0.5 1 1v12c0 0.6-0.4 1-1 1h-98.6c-0.5 0-1-0.4-1-1v-12c0-0.5 0.5-1 1-1z"/><path class="v" d="m290.4 270.2h12c0.6 0 1 0.5 1 1v12c0 0.6-0.4 1-1 1h-12c-0.5 0-1-0.4-1-1v-12c0-0.5 0.5-1 1-1z"/><path class="v" d="m326.1 278.1h8c0.5 0 1 0.4 1 1v4.1c0 0.6-0.5 1-1 1h-8c-0.6 0-1-0.4-1-1v-4.1c0-0.6 0.4-1 1-1z"/><path class="v" d="m326.1 270.2h8c0.5 0 1 0.5 1 1v4.1c0 0.6-0.5 1-1 1h-8c-0.6 0-1-0.4-1-1v-4.1c0-0.5 0.4-1 1-1z"/><path class="v" d="m340.1 278.1h8c0.5 0 1 0.4 1 1v4.1c0 0.6-0.5 1-1 1h-8c-0.6 0-1-0.4-1-1v-4.1c0-0.6 0.4-1 1-1z"/><path class="v" d="m312.1 278.1h8c0.5 0 1 0.4 1 1v4.1c0 0.6-0.5 1-1 1h-8c-0.6 0-1-0.4-1-1v-4.1c0-0.6 0.4-1 1-1z"/><path class="v" d="m139 250.3h31.6c0.6 0 1 0.4 1 1v12c0 0.5-0.4 1-1 1h-31.6c-0.6 0-1-0.5-1-1v-12c0-0.6 0.4-1 1-1z"/><path class="v" d="m180.4 250.3h12c0.6 0 1 0.4 1 1v12c0 0.5-0.4 1-1 1h-12c-0.5 0-1-0.5-1-1v-12c0-0.6 0.5-1 1-1z"/><path class="v" d="m202.1 250.3h12c0.5 0 1 0.4 1 1v12c0 0.5-0.5 1-1 1h-12c-0.6 0-1-0.5-1-1v-12c0-0.6 0.4-1 1-1z"/><path class="v" d="m223.7 250.3h12c0.6 0 1 0.4 1 1v12c0 0.5-0.4 1-1 1h-12c-0.6 0-1-0.5-1-1v-12c0-0.6 0.5-1 1-1z"/><path class="v" d="m245.3 250.3h12c0.6 0 1 0.4 1 1v12c0 0.5-0.4 1-1 1h-12c-0.5 0-1-0.5-1-1v-12c0-0.6 0.5-1 1-1z"/><path class="v" d="m267 250.3h12c0.5 0 1 0.4 1 1v12c0 0.5-0.5 1-1 1h-12c-0.6 0-1-0.5-1-1v-12c0-0.6 0.4-1 1-1z"/><path class="v" d="m288.6 250.3h12c0.6 0 1 0.4 1 1v12c0 0.5-0.4 1-1 1h-12c-0.5 0-1-0.5-1-1v-12c0-0.6 0.5-1 1-1z"/><path class="v" d="m312.1 250.3h36c0.5 0 1 0.4 1 1v12c0 0.5-0.5 1-1 1h-36c-0.6 0-1-0.5-1-1v-12c0-0.6 0.4-1 1-1z"/><path class="v" d="m172.6 229.8h12c0.6 0 1 0.5 1 1v12c0 0.6-0.4 1-1 1h-12c-0.5 0-1-0.4-1-1v-12c0-0.5 0.5-1 1-1z"/><path class="v" d="m139 229.8h24c0.5 0 1 0.5 1 1v12c0 0.6-0.5 1-1 1h-24c-0.6 0-1-0.4-1-1v-12c0-0.5 0.4-1 1-1z"/><path class="v" d="m194.3 229.8h11.9c0.6 0 1 0.5 1 1v12c0 0.6-0.4 1-1 1h-12c-0.5 0-1-0.4-1-1v-12c0-0.5 0.5-1 1-1z"/><path class="v" d="m215.9 229.8h12c0.5 0 1 0.5 1 1v12c0 0.6-0.5 1-1 1h-12c-0.6 0-1-0.4-1-1v-12c0-0.5 0.4-1 1-1z"/><path class="v" d="m237.5 229.8h12c0.6 0 1 0.5 1 1v12c0 0.6-0.4 1-1 1h-12c-0.5 0-1-0.4-1-1v-12c0-0.5 0.5-1 1-1z"/><path class="v" d="m259.2 229.8h12c0.5 0 1 0.5 1 1v12c0 0.6-0.5 1-1 1h-12c-0.6 0-1-0.4-1-1v-12c0-0.5 0.4-1 1-1z"/><path class="v" d="m280.8 229.8h12c0.6 0 1 0.5 1 1v12c0 0.6-0.4 1-1 1h-12c-0.6 0-1-0.4-1-1v-12c0-0.5 0.4-1 1-1z"/><path class="v" d="m302.4 229.8h12c0.6 0 1 0.5 1 1v12c0 0.6-0.4 1-1 1h-12c-0.5 0-1-0.4-1-1v-12c0-0.5 0.5-1 1-1z"/><path class="v" d="m324.1 229.8h24c0.5 0 1 0.5 1 1v12c0 0.6-0.5 1-1 1h-24c-0.6 0-1-0.4-1-1v-12c0-0.5 0.4-1 1-1z"/><path class="v" d="m160.9 210.2h12c0.5 0 1 0.5 1 1v12c0 0.6-0.5 1-1 1h-12c-0.6 0-1-0.4-1-1v-12c0-0.5 0.4-1 1-1z"/><path class="v" d="m139 210.2h12c0.5 0 1 0.5 1 1v12c0 0.6-0.5 1-1 1h-12c-0.6 0-1-0.4-1-1v-12c0-0.5 0.4-1 1-1z"/><path class="v" d="m182.8 210.2h12c0.5 0 1 0.5 1 1v12c0 0.6-0.5 1-1 1h-12c-0.6 0-1-0.4-1-1v-12c0-0.5 0.4-1 1-1z"/><path class="v" d="m204.7 210.2h12c0.5 0 1 0.5 1 1v12c0 0.6-0.5 1-1 1h-12c-0.6 0-1-0.4-1-1v-12c0-0.5 0.4-1 1-1z"/><path class="v" d="m226.6 210.2h12c0.5 0 1 0.5 1 1v12c0 0.6-0.5 1-1 1h-12c-0.6 0-1-0.4-1-1v-12c0-0.5 0.4-1 1-1z"/><path class="v" d="m248.5 210.2h12c0.5 0 1 0.5 1 1v12c0 0.6-0.5 1-1 1h-12c-0.6 0-1-0.4-1-1v-12c0-0.5 0.4-1 1-1z"/><path class="v" d="m270.4 210.2h12c0.5 0 1 0.5 1 1v12c0 0.6-0.5 1-1 1h-12c-0.6 0-1-0.4-1-1v-12c0-0.5 0.4-1 1-1z"/><path class="v" d="m292.3 210.2h12c0.5 0 1 0.5 1 1v12c0 0.6-0.5 1-1 1h-12c-0.6 0-1-0.4-1-1v-12c0-0.5 0.4-1 1-1z"/><path class="v" d="m314.2 210.2h12c0.5 0 1 0.5 1 1v12c0 0.6-0.5 1-1 1h-12c-0.6 0-1-0.4-1-1v-12c0-0.5 0.4-1 1-1z"/><path class="v" d="m336.1 210.2h12c0.5 0 1 0.5 1 1v12c0 0.6-0.5 1-1 1h-12c-0.6 0-1-0.4-1-1v-12c0-0.5 0.4-1 1-1z"/><path class="o" d="m160.6 270.2h12c0.6 0 1 0.5 1 1v12c0 0.6-0.4 1-1 1h-12c-0.5 0-1-0.4-1-1v-12c0-0.5 0.5-1 1-1z"/><path class="o" d="m139 270.2h12c0.5 0 1 0.5 1 1v12c0 0.6-0.5 1-1 1h-12c-0.6 0-1-0.4-1-1v-12c0-0.5 0.4-1 1-1z"/><path class="o" d="m182.3 270.2h98.5c0.6 0 1 0.5 1 1v12c0 0.6-0.4 1-1 1h-98.6c-0.5 0-1-0.4-1-1v-12c0-0.5 0.5-1 1-1z"/><path class="o" d="m290.4 270.2h12c0.6 0 1 0.5 1 1v12c0 0.6-0.4 1-1 1h-12c-0.5 0-1-0.4-1-1v-12c0-0.5 0.5-1 1-1z"/><path class="o" d="m326.1 278.1h8c0.5 0 1 0.4 1 1v4.1c0 0.6-0.5 1-1 1h-8c-0.6 0-1-0.4-1-1v-4.1c0-0.6 0.4-1 1-1z"/><path class="o" d="m326.1 270.2h8c0.5 0 1 0.5 1 1v4.1c0 0.6-0.5 1-1 1h-8c-0.6 0-1-0.4-1-1v-4.1c0-0.5 0.4-1 1-1z"/><path class="o" d="m340.1 278.1h8c0.5 0 1 0.4 1 1v4.1c0 0.6-0.5 1-1 1h-8c-0.6 0-1-0.4-1-1v-4.1c0-0.6 0.4-1 1-1z"/><path class="o" d="m312.1 278.1h8c0.5 0 1 0.4 1 1v4.1c0 0.6-0.5 1-1 1h-8c-0.6 0-1-0.4-1-1v-4.1c0-0.6 0.4-1 1-1z"/><path class="o" d="m139 250.3h31.6c0.6 0 1 0.4 1 1v12c0 0.5-0.4 1-1 1h-31.6c-0.6 0-1-0.5-1-1v-12c0-0.6 0.4-1 1-1z"/><path class="o" d="m180.4 250.3h12c0.6 0 1 0.4 1 1v12c0 0.5-0.4 1-1 1h-12c-0.5 0-1-0.5-1-1v-12c0-0.6 0.5-1 1-1z"/><path class="o" d="m202.1 250.3h12c0.5 0 1 0.4 1 1v12c0 0.5-0.5 1-1 1h-12c-0.6 0-1-0.5-1-1v-12c0-0.6 0.4-1 1-1z"/><path class="o" d="m223.7 250.3h12c0.6 0 1 0.4 1 1v12c0 0.5-0.4 1-1 1h-12c-0.6 0-1-0.5-1-1v-12c0-0.6 0.5-1 1-1z"/><path class="o" d="m245.3 250.3h12c0.6 0 1 0.4 1 1v12c0 0.5-0.4 1-1 1h-12c-0.5 0-1-0.5-1-1v-12c0-0.6 0.5-1 1-1z"/><path class="o" d="m267 250.3h12c0.5 0 1 0.4 1 1v12c0 0.5-0.5 1-1 1h-12c-0.6 0-1-0.5-1-1v-12c0-0.6 0.4-1 1-1z"/><path class="o" d="m288.6 250.3h12c0.6 0 1 0.4 1 1v12c0 0.5-0.4 1-1 1h-12c-0.5 0-1-0.5-1-1v-12c0-0.6 0.5-1 1-1z"/><path class="o" d="m312.1 250.3h36c0.5 0 1 0.4 1 1v12c0 0.5-0.5 1-1 1h-36c-0.6 0-1-0.5-1-1v-12c0-0.6 0.4-1 1-1z"/><path class="o" d="m172.6 229.8h12c0.6 0 1 0.5 1 1v12c0 0.6-0.4 1-1 1h-12c-0.5 0-1-0.4-1-1v-12c0-0.5 0.5-1 1-1z"/><path class="o" d="m139 229.8h24c0.5 0 1 0.5 1 1v12c0 0.6-0.5 1-1 1h-24c-0.6 0-1-0.4-1-1v-12c0-0.5 0.4-1 1-1z"/><path class="o" d="m194.3 229.8h11.9c0.6 0 1 0.5 1 1v12c0 0.6-0.4 1-1 1h-12c-0.5 0-1-0.4-1-1v-12c0-0.5 0.5-1 1-1z"/><path class="o" d="m215.9 229.8h12c0.5 0 1 0.5 1 1v12c0 0.6-0.5 1-1 1h-12c-0.6 0-1-0.4-1-1v-12c0-0.5 0.4-1 1-1z"/><path class="o" d="m237.5 229.8h12c0.6 0 1 0.5 1 1v12c0 0.6-0.4 1-1 1h-12c-0.5 0-1-0.4-1-1v-12c0-0.5 0.5-1 1-1z"/><path class="o" d="m259.2 229.8h12c0.5 0 1 0.5 1 1v12c0 0.6-0.5 1-1 1h-12c-0.6 0-1-0.4-1-1v-12c0-0.5 0.4-1 1-1z"/><path class="o" d="m280.8 229.8h12c0.6 0 1 0.5 1 1v12c0 0.6-0.4 1-1 1h-12c-0.6 0-1-0.4-1-1v-12c0-0.5 0.4-1 1-1z"/><path class="o" d="m302.4 229.8h12c0.6 0 1 0.5 1 1v12c0 0.6-0.4 1-1 1h-12c-0.5 0-1-0.4-1-1v-12c0-0.5 0.5-1 1-1z"/><path class="o" d="m324.1 229.8h24c0.5 0 1 0.5 1 1v12c0 0.6-0.5 1-1 1h-24c-0.6 0-1-0.4-1-1v-12c0-0.5 0.4-1 1-1z"/><path class="o" d="m160.9 210.2h12c0.5 0 1 0.5 1 1v12c0 0.6-0.5 1-1 1h-12c-0.6 0-1-0.4-1-1v-12c0-0.5 0.4-1 1-1z"/><path class="o" d="m139 210.2h12c0.5 0 1 0.5 1 1v12c0 0.6-0.5 1-1 1h-12c-0.6 0-1-0.4-1-1v-12c0-0.5 0.4-1 1-1z"/><path class="o" d="m182.8 210.2h12c0.5 0 1 0.5 1 1v12c0 0.6-0.5 1-1 1h-12c-0.6 0-1-0.4-1-1v-12c0-0.5 0.4-1 1-1z"/><path class="o" d="m204.7 210.2h12c0.5 0 1 0.5 1 1v12c0 0.6-0.5 1-1 1h-12c-0.6 0-1-0.4-1-1v-12c0-0.5 0.4-1 1-1z"/><path class="o" d="m226.6 210.2h12c0.5 0 1 0.5 1 1v12c0 0.6-0.5 1-1 1h-12c-0.6 0-1-0.4-1-1v-12c0-0.5 0.4-1 1-1z"/><path class="o" d="m248.5 210.2h12c0.5 0 1 0.5 1 1v12c0 0.6-0.5 1-1 1h-12c-0.6 0-1-0.4-1-1v-12c0-0.5 0.4-1 1-1z"/><path class="o" d="m270.4 210.2h12c0.5 0 1 0.5 1 1v12c0 0.6-0.5 1-1 1h-12c-0.6 0-1-0.4-1-1v-12c0-0.5 0.4-1 1-1z"/><path class="o" d="m292.3 210.2h12c0.5 0 1 0.5 1 1v12c0 0.6-0.5 1-1 1h-12c-0.6 0-1-0.4-1-1v-12c0-0.5 0.4-1 1-1z"/><path class="o" d="m314.2 210.2h12c0.5 0 1 0.5 1 1v12c0 0.6-0.5 1-1 1h-12c-0.6 0-1-0.4-1-1v-12c0-0.5 0.4-1 1-1z"/><path class="o" d="m336.1 210.2h12c0.5 0 1 0.5 1 1v12c0 0.6-0.5 1-1 1h-12c-0.6 0-1-0.4-1-1v-12c0-0.5 0.4-1 1-1z"/><path class="o" d="m158.5 178.3h170v13.5c0 2.2-1.8 4-4 4h-162c-2.2 0-4-1.8-4-4v-13.5z"/><path fill-rule="evenodd" class="w" d="m158.5 178.3h170v2h-170z"/><path class="x" d="m324.5 191.8l-162-0.1c-2.2 0-4-1.7-4-4v4c0 2.3 1.8 4 4 4h162c2.2 0 4-1.7 4-4v-4c0 2.3-1.8 4-4 4z"/><path class="y" d="m158.5 178.3h170v13.5c0 2.2-1.8 4-4 4h-162c-2.2 0-4-1.8-4-4v-13.5z"/><path class="u" d="m208.5 297.7h70c1.1 0 2 0.9 2 2v47c0 1.1-0.9 2-2 2h-70c-1.1 0-2-0.9-2-2v-47c0-1.1 0.9-2 2-2z"/><path class="v" d="m208.5 297.7h70c1.1 0 2 0.9 2 2v47c0 1.1-0.9 2-2 2h-70c-1.1 0-2-0.9-2-2v-47c0-1.1 0.9-2 2-2z"/><path fill-rule="evenodd" class="z" d="m243.5 36.4c-1.6 0-3-1.3-3-3 0-1.6 1.4-3 3-3 1.7 0 3 1.4 3 3 0 1.7-1.3 3-3 3z"/><path fill-rule="evenodd" class="t" d="m243.5 36.4c-1.6 0-3-1.3-3-3 0-1.6 1.4-3 3-3 1.7 0 3 1.4 3 3 0 1.7-1.3 3-3 3z"/><path class="r" d="m293.9 54.5h12c0.5 0 1 0.5 1 1 0 0.6-0.5 1-1 1h-12c-0.6 0-1-0.4-1-1 0-0.5 0.4-1 1-1z"/><path class="r" d="m319.9 54.5h12c0.5 0 1 0.5 1 1 0 0.6-0.5 1-1 1h-12c-0.6 0-1-0.4-1-1 0-0.5 0.4-1 1-1z"/><path class="r" d="m267.9 54.5h12c0.6 0 1 0.5 1 1 0 0.6-0.4 1-1 1h-12c-0.5 0-1-0.4-1-1 0-0.5 0.5-1 1-1z"/><path fill-rule="evenodd" class="r" d="m150.8 60.9c-2.7 0-4.9-2.2-4.9-4.9 0-2.6 2.2-4.8 4.9-4.8 2.6 0 4.8 2.2 4.8 4.8 0 2.7-2.2 4.9-4.8 4.9z"/><g style="opacity:.72"><path fill-rule="evenodd" class="r" d="m192.8 109h101.3v3.7h-101.3z"/><path fill-rule="evenodd" class="r" d="m205.7 96.9h75.6v3.7h-75.6z"/></g><path class="A" d="m232.1 137.3h28.8c3.1 0 5.5 2.5 5.5 5.5 0 3-2.4 5.5-5.5 5.5h-28.8c-3 0-5.5-2.5-5.5-5.5 0-3 2.5-5.5 5.5-5.5z"/><g style="opacity:.33"><path class="d" d="m19.5 333.3l7.7-11c0.2-0.3 0.6-0.4 0.9-0.2l7.9 5.5c0.3 0.2 0.4 0.7 0.2 1l-7.7 11c-1.6 2.3-4.7 2.8-7 1.2l-0.8-0.5c-2.3-1.6-2.8-4.7-1.2-7z"/><path class="d" d="m19.5 333.3l7.7-11c0.2-0.3 0.6-0.4 0.9-0.2l7.9 5.5c0.3 0.2 0.4 0.7 0.2 1l-7.7 11c-1.6 2.3-4.7 2.8-7 1.2l-0.8-0.5c-2.3-1.6-2.8-4.7-1.2-7z"/><path fill-rule="evenodd" class="d" d="m49.1 333.5c-18 0-32.6-14.6-32.6-32.6 0-18 14.6-32.6 32.6-32.6 18 0 32.6 14.6 32.6 32.6 0 18-14.6 32.6-32.6 32.6z"/><path fill-rule="evenodd" class="d" d="m49.1 333.5c-18 0-32.6-14.6-32.6-32.6 0-18 14.6-32.6 32.6-32.6 18 0 32.6 14.6 32.6 32.6 0 18-14.6 32.6-32.6 32.6z"/><path fill-rule="evenodd" class="d" d="m49.1 326.3c-14 0-25.4-11.4-25.4-25.4 0-14 11.4-25.3 25.4-25.3 14 0 25.3 11.3 25.3 25.3 0 14-11.3 25.4-25.3 25.4z"/><path fill-rule="evenodd" class="d" d="m49.1 326.3c-14 0-25.4-11.4-25.4-25.4 0-14 11.4-25.3 25.4-25.3 14 0 25.3 11.3 25.3 25.3 0 14-11.3 25.4-25.3 25.4z"/><path class="B" d="m32.5 295.7q0.5-1.2 1.1-2.3c1.7-3.3 3.7-6.8 7-8.8 2.7-1.7 6.6-2.4 9.6-0.9 2.6 1.3 4.1 4.1 6.5 5.8q2.4 1.4 4.9 2.6c1.7 0.8 3.1 2.2 3.8 3.9 0.8 2.4-0.5 5.1-0.5 7.6 0 1.4 0.4 2.8 1.1 4 0.5 0.6 0.8 1.3 0.9 2-0.1 1-0.8 1.8-1.7 2.1-2.6 1.2-5.7 0.8-8.6 0.5-2.9-0.3-6.1-0.4-8.3 1.4q-1.4 1.3-2.6 2.8c-1.3 1.8-3.8 2.4-5.7 1.1q-0.3-0.2-0.6-0.5c-2-1.7-3.8-3.8-5.3-6-1.5-1.9-2.6-4.2-3.2-6.6-0.5-3 0.4-5.9 1.6-8.7z"/><path fill-rule="evenodd" class="B" d="m54.2 320.1c-0.9 0-1.6-0.7-1.6-1.6 0-0.8 0.7-1.5 1.6-1.5 0.9 0 1.6 0.7 1.6 1.5 0 0.9-0.7 1.6-1.6 1.6z"/><path fill-rule="evenodd" class="B" d="m50.1 320.2c-0.6 0-1.1-0.5-1.1-1.1 0-0.6 0.5-1.1 1.1-1.1 0.6 0 1.1 0.5 1.1 1.1 0 0.6-0.5 1.1-1.1 1.1z"/><path fill-rule="evenodd" class="B" d="m57.9 318.1c-0.5 0-1-0.5-1-1 0-0.6 0.5-1 1-1 0.6 0 1 0.4 1 1 0 0.5-0.4 1-1 1z"/><path fill-rule="evenodd" class="B" d="m46.7 320.2c-0.4 0-0.7-0.3-0.7-0.7 0-0.4 0.3-0.7 0.7-0.7 0.4 0 0.7 0.3 0.7 0.7 0 0.4-0.3 0.7-0.7 0.7z"/><path fill-rule="evenodd" class="B" d="m61 316.5c-0.2 0-0.4-0.2-0.4-0.5 0-0.2 0.2-0.4 0.4-0.4 0.3 0 0.5 0.2 0.5 0.4 0 0.3-0.2 0.5-0.5 0.5z"/><path fill-rule="evenodd" class="B" d="m29.4 295.9c-0.5 0-1-0.4-1-1 0-0.5 0.5-1 1-1 0.6 0 1 0.5 1 1 0 0.6-0.4 1-1 1z"/><path fill-rule="evenodd" class="B" d="m57 284.1c-0.5 0-0.9-0.4-0.9-1 0-0.5 0.4-0.9 0.9-0.9 0.5 0 1 0.4 1 0.9 0 0.6-0.5 1-1 1z"/><path fill-rule="evenodd" class="B" d="m63.2 288.7c-0.5 0-0.8-0.4-0.8-0.9 0-0.4 0.3-0.8 0.8-0.8 0.5 0 0.9 0.4 0.9 0.8 0 0.5-0.4 0.9-0.9 0.9z"/><path fill-rule="evenodd" class="B" d="m63.9 290.7c-0.2 0-0.4-0.2-0.4-0.4 0-0.2 0.2-0.4 0.4-0.4 0.2 0 0.4 0.2 0.4 0.4 0 0.2-0.2 0.4-0.4 0.4z"/></g><path class="j" d="m12.4 325.3l7.7-11.1c0.2-0.3 0.6-0.3 1-0.1l7.8 5.5c0.3 0.2 0.4 0.6 0.2 0.9l-7.7 11.1c-1.6 2.2-4.7 2.8-7 1.2l-0.8-0.6c-2.3-1.5-2.8-4.7-1.2-6.9z"/><path class="k" d="m21.1 314.1c-0.4-0.2-0.8-0.2-1 0.1l-3.5 5q2 1.9 4.3 3.5 2.3 1.6 4.7 2.8l3.5-4.9c0.2-0.4 0.1-0.8-0.2-1z"/><path class="l" d="m12.4 325.3l7.7-11.1c0.2-0.3 0.6-0.3 1-0.1l7.8 5.5c0.3 0.2 0.4 0.6 0.2 0.9l-7.7 11.1c-1.6 2.2-4.7 2.8-7 1.2l-0.8-0.6c-2.3-1.5-2.8-4.7-1.2-6.9z"/><path fill-rule="evenodd" class="j" d="m41.9 325.3c-18.1 0-32.6-14.5-32.6-32.6 0-18 14.5-32.5 32.6-32.5 18 0 32.5 14.5 32.5 32.5 0 18.1-14.5 32.6-32.5 32.6z"/><path fill-rule="evenodd" class="l" d="m41.9 325.3c-18.1 0-32.6-14.5-32.6-32.6 0-18 14.5-32.5 32.6-32.5 18 0 32.5 14.5 32.5 32.5 0 18.1-14.5 32.6-32.5 32.6z"/><path fill-rule="evenodd" class="C" d="m41.9 318.1c-14.1 0-25.4-11.3-25.4-25.4 0-14 11.3-25.3 25.4-25.3 14 0 25.3 11.3 25.3 25.3 0 14.1-11.3 25.4-25.3 25.4z"/><path fill-rule="evenodd" class="y" d="m41.9 318.1c-14.1 0-25.4-11.3-25.4-25.4 0-14 11.3-25.3 25.4-25.3 14 0 25.3 11.3 25.3 25.3 0 14.1-11.3 25.4-25.3 25.4z"/><path class="m" d="m25.3 287.5q0.5-1.2 1.1-2.3c1.7-3.3 3.7-6.8 6.9-8.8 2.8-1.7 6.7-2.4 9.6-0.9 2.6 1.4 4.2 4.1 6.5 5.8q2.4 1.4 5 2.6c1.7 0.8 3.1 2.2 3.8 3.9 0.8 2.5-0.5 5.1-0.5 7.6 0 1.5 0.4 2.8 1.1 4.1 0.5 0.5 0.8 1.2 0.9 1.9-0.1 1-0.8 1.8-1.7 2.1-2.6 1.2-5.7 0.8-8.6 0.5-2.9-0.3-6.1-0.4-8.3 1.4q-1.4 1.3-2.6 2.8c-1.3 1.9-3.8 2.4-5.7 1.1q-0.3-0.2-0.6-0.5c-2.1-1.7-3.9-3.7-5.3-6-1.5-1.9-2.6-4.2-3.2-6.6-0.5-2.9 0.3-5.9 1.6-8.7z"/><path fill-rule="evenodd" class="m" d="m47 311.9c-0.9 0-1.6-0.7-1.6-1.5 0-0.9 0.7-1.6 1.6-1.6 0.9 0 1.6 0.7 1.6 1.6 0 0.8-0.7 1.5-1.6 1.5z"/><path fill-rule="evenodd" class="m" d="m42.9 312c-0.6 0-1.1-0.4-1.1-1 0-0.7 0.5-1.1 1.1-1.1 0.6 0 1.1 0.4 1.1 1.1 0 0.6-0.5 1-1.1 1z"/><path fill-rule="evenodd" class="m" d="m50.7 309.9c-0.5 0-1-0.5-1-1 0-0.5 0.5-1 1-1 0.6 0 1 0.5 1 1 0 0.5-0.4 1-1 1z"/><path fill-rule="evenodd" class="m" d="m39.4 312.1c-0.4 0-0.7-0.3-0.7-0.7 0-0.4 0.3-0.8 0.7-0.8 0.4 0 0.8 0.4 0.8 0.8-0.1 0.4-0.4 0.7-0.8 0.7z"/><path fill-rule="evenodd" class="m" d="m53.8 308.3c-0.2 0-0.4-0.2-0.4-0.4 0-0.3 0.2-0.5 0.4-0.5 0.3 0 0.5 0.2 0.5 0.5 0 0.2-0.2 0.4-0.5 0.4z"/><path fill-rule="evenodd" class="m" d="m22.2 287.8c-0.6 0-1-0.5-1-1 0-0.6 0.4-1.1 1-1.1 0.5 0 1 0.5 1 1.1 0 0.5-0.5 1-1 1z"/><path fill-rule="evenodd" class="m" d="m49.8 275.9c-0.5 0-1-0.4-1-0.9 0-0.6 0.5-1 1-1 0.5 0 0.9 0.4 0.9 1 0 0.5-0.4 0.9-0.9 0.9z"/><path fill-rule="evenodd" class="m" d="m56 280.5c-0.5 0-0.9-0.4-0.9-0.8 0-0.5 0.4-0.9 0.9-0.9 0.5 0 0.9 0.4 0.9 0.9 0 0.4-0.4 0.8-0.9 0.8z"/><path fill-rule="evenodd" class="m" d="m56.7 282.5c-0.2 0-0.4-0.2-0.4-0.4 0-0.2 0.2-0.4 0.4-0.4 0.2 0 0.4 0.2 0.4 0.4 0 0.2-0.2 0.4-0.4 0.4z"/><path fill-rule="evenodd" class="C" d="m44.1 296.8c-1.1 0-2-0.9-2-2 0-1.1 0.9-2 2-2 1.1 0 2 0.9 2 2 0 1.1-0.9 2-2 2z"/><path fill-rule="evenodd" class="C" d="m37.6 290.7c-2 0-3.5-1.6-3.5-3.5 0-2 1.5-3.5 3.5-3.5 1.9 0 3.5 1.5 3.5 3.5 0 1.9-1.6 3.5-3.5 3.5z"/></svg>
