<?xml version="1.0" encoding="utf-8"?>
<!-- Generator: Adobe Illustrator 25.0.1, SVG Export Plug-In . SVG Version: 6.00 Build 0)  -->
<svg version="1.1" xmlns="http://www.w3.org/2000/svg" xmlns:xlink="http://www.w3.org/1999/xlink" x="0px" y="0px"
	 viewBox="0 0 396 396" style="enable-background:new 0 0 396 396;" xml:space="preserve">
<style type="text/css">
	.st0{opacity:0.33;}
	.st1{fill:#4E4E4E;stroke:#000000;stroke-linecap:round;stroke-linejoin:round;}
	.st2{fill:#4E4E4E;}
	.st3{opacity:0.17;fill:#4E4E4E;enable-background:new    ;}
	.st4{fill:#4E4E4E;stroke:#46505C;stroke-width:4;stroke-linecap:round;stroke-linejoin:round;}
	.st5{fill:#4E4E4E;stroke:#46505C;stroke-linecap:round;stroke-linejoin:round;}
	.st6{fill:#4E4E4E;stroke:#E6F3FF;stroke-width:2;stroke-miterlimit:10;}
	.st7{fill:#4E4E4E;stroke:#626C84;stroke-linecap:round;stroke-linejoin:round;}
	.st8{opacity:0.25;fill:#4E4E4E;enable-background:new    ;}
	.st9{fill:#4E4E4E;stroke:#46505C;stroke-width:2;stroke-linecap:round;stroke-linejoin:round;}
	.st10{fill:#FFFFFF;stroke:#E6F3FF;stroke-width:2;stroke-miterlimit:10;}
	
		.st11{opacity:0.18;fill:#4E4E4E;stroke:#46505C;stroke-width:4;stroke-linecap:round;stroke-linejoin:round;enable-background:new    ;}
	.st12{fill:none;stroke:#46505C;stroke-width:4;stroke-linecap:round;stroke-linejoin:round;}
	.st13{opacity:0.33;fill:#845B5B;enable-background:new    ;}
	.st14{fill:none;stroke:#000000;stroke-linecap:round;stroke-linejoin:round;}
	.st15{fill:#626C84;}
	.st16{opacity:0.17;fill:#626C84;enable-background:new    ;}
	.st17{opacity:0.1;fill:#FFFFFF;enable-background:new    ;}
	.st18{opacity:0.1;}
	.st19{fill:#FFFFFF;}
	.st20{fill:#FD848E;}
	.st21{opacity:0.06;}
	.st22{fill:none;stroke:#46505C;stroke-linecap:round;stroke-linejoin:round;}
	.st23{fill:#E6F3FF;}
	.st24{fill:none;stroke:#626C84;stroke-linecap:round;stroke-linejoin:round;}
	.st25{opacity:0.12;fill:#FFFFFF;enable-background:new    ;}
	.st26{opacity:0.25;fill:#626C84;enable-background:new    ;}
	.st27{fill:none;stroke:#46505C;stroke-width:2;stroke-linecap:round;stroke-linejoin:round;}
	.st28{opacity:0.52;fill:#FFFFFF;enable-background:new    ;}
	.st29{opacity:0.72;}
	.st30{fill:none;stroke:#FFFFFF;stroke-miterlimit:10;}
	.st31{fill:#4E4E4E;stroke:#46505C;stroke-width:3.9982;stroke-linecap:round;stroke-linejoin:round;stroke-miterlimit:3.9982;}
	
		.st32{opacity:0.33;fill:#4E4E4E;stroke:#46505C;stroke-width:4;stroke-linecap:round;stroke-linejoin:round;enable-background:new    ;}
	.st33{fill:#845B5B;}
</style>
<g id="Layer_2">
</g>
<g id="Layer_1">
	<g class="st0">
		<path class="st1" d="M135.47,151.23h232c7.73,0,14,6.27,14,14v17.48c0,7.73-6.27,14-14,14h-232c-7.73,0-14-6.27-14-14v-17.48
			C121.47,157.5,127.74,151.23,135.47,151.23z"/>
		<path class="st2" d="M135.47,151.23h232c7.73,0,14,6.27,14,14v17.48c0,7.73-6.27,14-14,14h-232c-7.73,0-14-6.27-14-14v-17.48
			C121.47,157.5,127.74,151.23,135.47,151.23z"/>
		<path class="st3" d="M135.47,151.23h232c7.73,0,14,6.27,14,14v20.44c0,4.72-3.83,8.55-8.55,8.55h0h-242.9
			c-4.72,0-8.55-3.83-8.55-8.55l0,0v-20.44C121.47,157.5,127.74,151.23,135.47,151.23L135.47,151.23z"/>
		<path class="st4" d="M135.47,151.23h232c7.73,0,14,6.27,14,14v17.48c0,7.73-6.27,14-14,14h-232c-7.73,0-14-6.27-14-14v-17.48
			C121.47,157.5,127.74,151.23,135.47,151.23z"/>
		<rect x="139.47" y="156.36" class="st2" width="224" height="34.94"/>
		<rect x="139.47" y="156.36" class="st5" width="224" height="34.94"/>
		<path class="st2" d="M135.47,196.71h232c7.73,0,14,6.27,14,14v144c0,7.73-6.27,14-14,14h-232c-7.73,0-14-6.27-14-14v-144
			C121.47,202.98,127.74,196.71,135.47,196.71z"/>
		<path class="st6" d="M377.47,210.71v144c0,5.52-4.48,10-10,10h-232c-5.52,0-10-4.48-10-10v-144c0-5.52,4.48-10,10-10h232
			C373,200.71,377.47,205.19,377.47,210.71z"/>
		<path class="st2" d="M235.42,360.89h32.1c2.21,0,4,1.79,4,4v3.82l0,0h-40.1l0,0v-3.82C231.42,362.68,233.21,360.89,235.42,360.89z
			"/>
		<path class="st4" d="M135.47,196.71h232c7.73,0,14,6.27,14,14v144c0,7.73-6.27,14-14,14h-232c-7.73,0-14-6.27-14-14v-144
			C121.47,202.98,127.74,196.71,135.47,196.71z"/>
		<path class="st2" d="M139.47,210.13h224c1.66,0,3,1.34,3,3v86c0,1.66-1.34,3-3,3h-224c-1.66,0-3-1.34-3-3v-86
			C136.47,211.47,137.82,210.13,139.47,210.13z"/>
		<path class="st7" d="M168.56,279.63h12c0.55,0,1,0.45,1,1v12c0,0.55-0.45,1-1,1h-12c-0.55,0-1-0.45-1-1v-12
			C167.56,280.08,168.01,279.63,168.56,279.63z"/>
		<path class="st7" d="M146.92,279.63h12c0.55,0,1,0.45,1,1v12c0,0.55-0.45,1-1,1h-12c-0.55,0-1-0.45-1-1v-12
			C145.92,280.08,146.37,279.63,146.92,279.63z"/>
		<path class="st7" d="M190.2,279.63h98.55c0.55,0,1,0.45,1,1v12c0,0.55-0.45,1-1,1H190.2c-0.55,0-1-0.45-1-1v-12
			C189.2,280.08,189.64,279.63,190.2,279.63z"/>
		<path class="st7" d="M298.39,279.63h12c0.55,0,1,0.45,1,1v12c0,0.55-0.45,1-1,1h-12c-0.55,0-1-0.45-1-1v-12
			C297.39,280.08,297.84,279.63,298.39,279.63z"/>
		<path class="st7" d="M334.03,287.5h8c0.55,0,1,0.45,1,1v4.13c0,0.55-0.45,1-1,1h-8c-0.55,0-1-0.45-1-1v-4.13
			C333.03,287.95,333.48,287.5,334.03,287.5z"/>
		<path class="st7" d="M334.03,279.63h8c0.55,0,1,0.45,1,1v4.13c0,0.55-0.45,1-1,1h-8c-0.55,0-1-0.45-1-1v-4.13
			C333.03,280.08,333.48,279.63,334.03,279.63z"/>
		<path class="st7" d="M348.03,287.5h8c0.55,0,1,0.45,1,1v4.13c0,0.55-0.45,1-1,1h-8c-0.55,0-1-0.45-1-1v-4.13
			C347.03,287.95,347.48,287.5,348.03,287.5z"/>
		<path class="st7" d="M320.03,287.5h8c0.55,0,1,0.45,1,1v4.13c0,0.55-0.45,1-1,1h-8c-0.55,0-1-0.45-1-1v-4.13
			C319.03,287.95,319.48,287.5,320.03,287.5z"/>
		<path class="st7" d="M146.92,259.71h31.64c0.55,0,1,0.45,1,1v12c0,0.55-0.45,1-1,1h-31.64c-0.55,0-1-0.45-1-1v-12
			C145.92,260.16,146.37,259.71,146.92,259.71z"/>
		<path class="st7" d="M188.38,259.71h12c0.55,0,1,0.45,1,1v12c0,0.55-0.45,1-1,1h-12c-0.55,0-1-0.45-1-1v-12
			C187.38,260.16,187.83,259.71,188.38,259.71z"/>
		<path class="st7" d="M210.02,259.71h12c0.55,0,1,0.45,1,1v12c0,0.55-0.45,1-1,1h-12c-0.55,0-1-0.45-1-1v-12
			C209.02,260.16,209.46,259.71,210.02,259.71z"/>
		<path class="st7" d="M231.65,259.71h12c0.55,0,1,0.45,1,1v12c0,0.55-0.45,1-1,1h-12c-0.55,0-1-0.45-1-1v-12
			C230.65,260.16,231.1,259.71,231.65,259.71z"/>
		<path class="st7" d="M253.29,259.71h12c0.55,0,1,0.45,1,1v12c0,0.55-0.45,1-1,1h-12c-0.55,0-1-0.45-1-1v-12
			C252.29,260.16,252.74,259.71,253.29,259.71z"/>
		<path class="st7" d="M274.93,259.71h12c0.55,0,1,0.45,1,1v12c0,0.55-0.45,1-1,1h-12c-0.55,0-1-0.45-1-1v-12
			C273.93,260.16,274.38,259.71,274.93,259.71z"/>
		<path class="st7" d="M296.57,259.71h12c0.55,0,1,0.45,1,1v12c0,0.55-0.45,1-1,1h-12c-0.55,0-1-0.45-1-1v-12
			C295.57,260.16,296.02,259.71,296.57,259.71z"/>
		<path class="st7" d="M320.03,259.71h36c0.55,0,1,0.45,1,1v12c0,0.55-0.45,1-1,1h-36c-0.55,0-1-0.45-1-1v-12
			C319.03,260.16,319.48,259.71,320.03,259.71z"/>
		<path class="st7" d="M180.56,239.23h12c0.55,0,1,0.45,1,1v12c0,0.55-0.45,1-1,1h-12c-0.55,0-1-0.45-1-1v-12
			C179.56,239.68,180.01,239.23,180.56,239.23z"/>
		<path class="st7" d="M146.92,239.23h24c0.55,0,1,0.45,1,1v12c0,0.55-0.45,1-1,1h-24c-0.55,0-1-0.45-1-1v-12
			C145.92,239.68,146.37,239.23,146.92,239.23z"/>
		<path class="st7" d="M202.2,239.23h12c0.55,0,1,0.45,1,1v12c0,0.55-0.45,1-1,1h-12c-0.55,0-1-0.45-1-1v-12
			C201.2,239.68,201.64,239.23,202.2,239.23z"/>
		<path class="st7" d="M223.84,239.23h12c0.55,0,1,0.45,1,1v12c0,0.55-0.45,1-1,1h-12c-0.55,0-1-0.45-1-1v-12
			C222.84,239.68,223.28,239.23,223.84,239.23z"/>
		<path class="st7" d="M245.47,239.23h12c0.55,0,1,0.45,1,1v12c0,0.55-0.45,1-1,1h-12c-0.55,0-1-0.45-1-1v-12
			C244.47,239.68,244.92,239.23,245.47,239.23z"/>
		<path class="st7" d="M267.11,239.23h12c0.55,0,1,0.45,1,1v12c0,0.55-0.45,1-1,1h-12c-0.55,0-1-0.45-1-1v-12
			C266.11,239.68,266.56,239.23,267.11,239.23z"/>
		<path class="st7" d="M288.75,239.23h12c0.55,0,1,0.45,1,1v12c0,0.55-0.45,1-1,1h-12c-0.55,0-1-0.45-1-1v-12
			C287.75,239.68,288.2,239.23,288.75,239.23z"/>
		<path class="st7" d="M310.39,239.23h12c0.55,0,1,0.45,1,1v12c0,0.55-0.45,1-1,1h-12c-0.55,0-1-0.45-1-1v-12
			C309.39,239.68,309.84,239.23,310.39,239.23z"/>
		<path class="st7" d="M332.03,239.23h24c0.55,0,1,0.45,1,1v12c0,0.55-0.45,1-1,1h-24c-0.55,0-1-0.45-1-1v-12
			C331.03,239.68,331.48,239.23,332.03,239.23z"/>
		<path class="st7" d="M168.82,219.63h12c0.55,0,1,0.45,1,1v12c0,0.55-0.45,1-1,1h-12c-0.55,0-1-0.45-1-1v-12
			C167.82,220.08,168.27,219.63,168.82,219.63z"/>
		<path class="st7" d="M146.92,219.63h12c0.55,0,1,0.45,1,1v12c0,0.55-0.45,1-1,1h-12c-0.55,0-1-0.45-1-1v-12
			C145.92,220.08,146.37,219.63,146.92,219.63z"/>
		<path class="st7" d="M190.72,219.63h12c0.55,0,1,0.45,1,1v12c0,0.55-0.45,1-1,1h-12c-0.55,0-1-0.45-1-1v-12
			C189.72,220.08,190.17,219.63,190.72,219.63z"/>
		<path class="st7" d="M212.62,219.63h12c0.55,0,1,0.45,1,1v12c0,0.55-0.45,1-1,1h-12c-0.55,0-1-0.45-1-1v-12
			C211.62,220.08,212.07,219.63,212.62,219.63z"/>
		<path class="st7" d="M234.52,219.63h12c0.55,0,1,0.45,1,1v12c0,0.55-0.45,1-1,1h-12c-0.55,0-1-0.45-1-1v-12
			C233.52,220.08,233.97,219.63,234.52,219.63z"/>
		<path class="st7" d="M256.42,219.63h12c0.55,0,1,0.45,1,1v12c0,0.55-0.45,1-1,1h-12c-0.55,0-1-0.45-1-1v-12
			C255.42,220.08,255.87,219.63,256.42,219.63z"/>
		<path class="st7" d="M278.33,219.63h12c0.55,0,1,0.45,1,1v12c0,0.55-0.45,1-1,1h-12c-0.55,0-1-0.45-1-1v-12
			C277.33,220.08,277.77,219.63,278.33,219.63z"/>
		<path class="st7" d="M300.23,219.63h12c0.55,0,1,0.45,1,1v12c0,0.55-0.45,1-1,1h-12c-0.55,0-1-0.45-1-1v-12
			C299.23,220.08,299.67,219.63,300.23,219.63z"/>
		<path class="st7" d="M322.13,219.63h12c0.55,0,1,0.45,1,1v12c0,0.55-0.45,1-1,1h-12c-0.55,0-1-0.45-1-1v-12
			C321.13,220.08,321.58,219.63,322.13,219.63z"/>
		<path class="st7" d="M344.03,219.63h12c0.55,0,1,0.45,1,1v12c0,0.55-0.45,1-1,1h-12c-0.55,0-1-0.45-1-1v-12
			C343.03,220.08,343.48,219.63,344.03,219.63z"/>
		<path class="st2" d="M168.56,279.63h12c0.55,0,1,0.45,1,1v12c0,0.55-0.45,1-1,1h-12c-0.55,0-1-0.45-1-1v-12
			C167.56,280.08,168.01,279.63,168.56,279.63z"/>
		<path class="st2" d="M146.92,279.63h12c0.55,0,1,0.45,1,1v12c0,0.55-0.45,1-1,1h-12c-0.55,0-1-0.45-1-1v-12
			C145.92,280.08,146.37,279.63,146.92,279.63z"/>
		<path class="st2" d="M190.2,279.63h98.55c0.55,0,1,0.45,1,1v12c0,0.55-0.45,1-1,1H190.2c-0.55,0-1-0.45-1-1v-12
			C189.2,280.08,189.64,279.63,190.2,279.63z"/>
		<path class="st2" d="M298.39,279.63h12c0.55,0,1,0.45,1,1v12c0,0.55-0.45,1-1,1h-12c-0.55,0-1-0.45-1-1v-12
			C297.39,280.08,297.84,279.63,298.39,279.63z"/>
		<path class="st2" d="M334.03,287.5h8c0.55,0,1,0.45,1,1v4.13c0,0.55-0.45,1-1,1h-8c-0.55,0-1-0.45-1-1v-4.13
			C333.03,287.95,333.48,287.5,334.03,287.5z"/>
		<path class="st2" d="M334.03,279.63h8c0.55,0,1,0.45,1,1v4.13c0,0.55-0.45,1-1,1h-8c-0.55,0-1-0.45-1-1v-4.13
			C333.03,280.08,333.48,279.63,334.03,279.63z"/>
		<path class="st2" d="M348.03,287.5h8c0.55,0,1,0.45,1,1v4.13c0,0.55-0.45,1-1,1h-8c-0.55,0-1-0.45-1-1v-4.13
			C347.03,287.95,347.48,287.5,348.03,287.5z"/>
		<path class="st2" d="M320.03,287.5h8c0.55,0,1,0.45,1,1v4.13c0,0.55-0.45,1-1,1h-8c-0.55,0-1-0.45-1-1v-4.13
			C319.03,287.95,319.48,287.5,320.03,287.5z"/>
		<path class="st2" d="M146.92,259.71h31.64c0.55,0,1,0.45,1,1v12c0,0.55-0.45,1-1,1h-31.64c-0.55,0-1-0.45-1-1v-12
			C145.92,260.16,146.37,259.71,146.92,259.71z"/>
		<path class="st2" d="M188.38,259.71h12c0.55,0,1,0.45,1,1v12c0,0.55-0.45,1-1,1h-12c-0.55,0-1-0.45-1-1v-12
			C187.38,260.16,187.83,259.71,188.38,259.71z"/>
		<path class="st2" d="M210.02,259.71h12c0.55,0,1,0.45,1,1v12c0,0.55-0.45,1-1,1h-12c-0.55,0-1-0.45-1-1v-12
			C209.02,260.16,209.46,259.71,210.02,259.71z"/>
		<path class="st2" d="M231.65,259.71h12c0.55,0,1,0.45,1,1v12c0,0.55-0.45,1-1,1h-12c-0.55,0-1-0.45-1-1v-12
			C230.65,260.16,231.1,259.71,231.65,259.71z"/>
		<path class="st2" d="M253.29,259.71h12c0.55,0,1,0.45,1,1v12c0,0.55-0.45,1-1,1h-12c-0.55,0-1-0.45-1-1v-12
			C252.29,260.16,252.74,259.71,253.29,259.71z"/>
		<path class="st2" d="M274.93,259.71h12c0.55,0,1,0.45,1,1v12c0,0.55-0.45,1-1,1h-12c-0.55,0-1-0.45-1-1v-12
			C273.93,260.16,274.38,259.71,274.93,259.71z"/>
		<path class="st2" d="M296.57,259.71h12c0.55,0,1,0.45,1,1v12c0,0.55-0.45,1-1,1h-12c-0.55,0-1-0.45-1-1v-12
			C295.57,260.16,296.02,259.71,296.57,259.71z"/>
		<path class="st2" d="M320.03,259.71h36c0.55,0,1,0.45,1,1v12c0,0.55-0.45,1-1,1h-36c-0.55,0-1-0.45-1-1v-12
			C319.03,260.16,319.48,259.71,320.03,259.71z"/>
		<path class="st2" d="M180.56,239.23h12c0.55,0,1,0.45,1,1v12c0,0.55-0.45,1-1,1h-12c-0.55,0-1-0.45-1-1v-12
			C179.56,239.68,180.01,239.23,180.56,239.23z"/>
		<path class="st2" d="M146.92,239.23h24c0.55,0,1,0.45,1,1v12c0,0.55-0.45,1-1,1h-24c-0.55,0-1-0.45-1-1v-12
			C145.92,239.68,146.37,239.23,146.92,239.23z"/>
		<path class="st2" d="M202.2,239.23h12c0.55,0,1,0.45,1,1v12c0,0.55-0.45,1-1,1h-12c-0.55,0-1-0.45-1-1v-12
			C201.2,239.68,201.64,239.23,202.2,239.23z"/>
		<path class="st2" d="M223.84,239.23h12c0.55,0,1,0.45,1,1v12c0,0.55-0.45,1-1,1h-12c-0.55,0-1-0.45-1-1v-12
			C222.84,239.68,223.28,239.23,223.84,239.23z"/>
		<path class="st2" d="M245.47,239.23h12c0.55,0,1,0.45,1,1v12c0,0.55-0.45,1-1,1h-12c-0.55,0-1-0.45-1-1v-12
			C244.47,239.68,244.92,239.23,245.47,239.23z"/>
		<path class="st2" d="M267.11,239.23h12c0.55,0,1,0.45,1,1v12c0,0.55-0.45,1-1,1h-12c-0.55,0-1-0.45-1-1v-12
			C266.11,239.68,266.56,239.23,267.11,239.23z"/>
		<path class="st2" d="M288.75,239.23h12c0.55,0,1,0.45,1,1v12c0,0.55-0.45,1-1,1h-12c-0.55,0-1-0.45-1-1v-12
			C287.75,239.68,288.2,239.23,288.75,239.23z"/>
		<path class="st2" d="M310.39,239.23h12c0.55,0,1,0.45,1,1v12c0,0.55-0.45,1-1,1h-12c-0.55,0-1-0.45-1-1v-12
			C309.39,239.68,309.84,239.23,310.39,239.23z"/>
		<path class="st2" d="M332.03,239.23h24c0.55,0,1,0.45,1,1v12c0,0.55-0.45,1-1,1h-24c-0.55,0-1-0.45-1-1v-12
			C331.03,239.68,331.48,239.23,332.03,239.23z"/>
		<path class="st2" d="M168.82,219.63h12c0.55,0,1,0.45,1,1v12c0,0.55-0.45,1-1,1h-12c-0.55,0-1-0.45-1-1v-12
			C167.82,220.08,168.27,219.63,168.82,219.63z"/>
		<path class="st2" d="M146.92,219.63h12c0.55,0,1,0.45,1,1v12c0,0.55-0.45,1-1,1h-12c-0.55,0-1-0.45-1-1v-12
			C145.92,220.08,146.37,219.63,146.92,219.63z"/>
		<path class="st2" d="M190.72,219.63h12c0.55,0,1,0.45,1,1v12c0,0.55-0.45,1-1,1h-12c-0.55,0-1-0.45-1-1v-12
			C189.72,220.08,190.17,219.63,190.72,219.63z"/>
		<path class="st2" d="M212.62,219.63h12c0.55,0,1,0.45,1,1v12c0,0.55-0.45,1-1,1h-12c-0.55,0-1-0.45-1-1v-12
			C211.62,220.08,212.07,219.63,212.62,219.63z"/>
		<path class="st2" d="M234.52,219.63h12c0.55,0,1,0.45,1,1v12c0,0.55-0.45,1-1,1h-12c-0.55,0-1-0.45-1-1v-12
			C233.52,220.08,233.97,219.63,234.52,219.63z"/>
		<path class="st2" d="M256.42,219.63h12c0.55,0,1,0.45,1,1v12c0,0.55-0.45,1-1,1h-12c-0.55,0-1-0.45-1-1v-12
			C255.42,220.08,255.87,219.63,256.42,219.63z"/>
		<path class="st2" d="M278.33,219.63h12c0.55,0,1,0.45,1,1v12c0,0.55-0.45,1-1,1h-12c-0.55,0-1-0.45-1-1v-12
			C277.33,220.08,277.77,219.63,278.33,219.63z"/>
		<path class="st2" d="M300.23,219.63h12c0.55,0,1,0.45,1,1v12c0,0.55-0.45,1-1,1h-12c-0.55,0-1-0.45-1-1v-12
			C299.23,220.08,299.67,219.63,300.23,219.63z"/>
		<path class="st2" d="M322.13,219.63h12c0.55,0,1,0.45,1,1v12c0,0.55-0.45,1-1,1h-12c-0.55,0-1-0.45-1-1v-12
			C321.13,220.08,321.58,219.63,322.13,219.63z"/>
		<path class="st2" d="M344.03,219.63h12c0.55,0,1,0.45,1,1v12c0,0.55-0.45,1-1,1h-12c-0.55,0-1-0.45-1-1v-12
			C343.03,220.08,343.48,219.63,344.03,219.63z"/>
		<path class="st2" d="M166.47,187.73h170l0,0v13.45c0,2.21-1.79,4-4,4h-162c-2.21,0-4-1.79-4-4L166.47,187.73L166.47,187.73z"/>
		<path class="st8" d="M332.47,201.17h-162c-2.21,0-4-1.79-4-4v4c0,2.21,1.79,4,4,4h162c2.21,0,4-1.79,4-4v-4
			C336.47,199.38,334.68,201.17,332.47,201.17z"/>
		<path class="st9" d="M166.47,187.73h170l0,0v13.45c0,2.21-1.79,4-4,4h-162c-2.21,0-4-1.79-4-4L166.47,187.73L166.47,187.73z"/>
		<path class="st2" d="M216.47,307.13h70c1.1,0,2,0.9,2,2v47c0,1.1-0.9,2-2,2h-70c-1.1,0-2-0.9-2-2v-47
			C214.47,308.02,215.37,307.13,216.47,307.13z"/>
		<path class="st7" d="M216.47,307.13h70c1.1,0,2,0.9,2,2v47c0,1.1-0.9,2-2,2h-70c-1.1,0-2-0.9-2-2v-47
			C214.47,308.02,215.37,307.13,216.47,307.13z"/>
	</g>
	<path class="st10" d="M23.9,288.67l7.72-11.03c0.22-0.31,0.65-0.39,0.96-0.17l7.88,5.51c0.31,0.22,0.39,0.65,0.17,0.96l-7.72,11.03
		c-1.58,2.26-4.7,2.81-6.96,1.23l-0.82-0.57C22.87,294.05,22.32,290.93,23.9,288.67L23.9,288.67z"/>
	<path class="st11" d="M32.58,277.47c-0.31-0.22-0.74-0.14-0.96,0.17l-3.48,4.97c1.33,1.27,2.76,2.44,4.27,3.49
		c1.51,1.05,3.09,2,4.74,2.82l3.48-4.97c0.22-0.31,0.14-0.74-0.17-0.96c0,0,0,0,0,0L32.58,277.47z"/>
	<path class="st12" d="M23.9,288.67l7.72-11.03c0.22-0.31,0.65-0.39,0.96-0.17l7.88,5.51c0.31,0.22,0.39,0.65,0.17,0.96l-7.72,11.03
		c-1.58,2.26-4.7,2.81-6.96,1.23l-0.82-0.57C22.87,294.05,22.32,290.93,23.9,288.67L23.9,288.67z"/>
	<circle class="st13" cx="58.51" cy="273.75" r="1.57"/>
	<circle class="st13" cx="54.42" cy="274.33" r="1.09"/>
	<circle class="st13" cx="62.23" cy="272.29" r="0.99"/>
	<circle class="st13" cx="50.97" cy="274.74" r="0.71"/>
	<circle class="st13" cx="65.35" cy="271.25" r="0.43"/>
	<path class="st14" d="M127.52,23.29h232c7.73,0,14,6.27,14,14v136c0,7.73-6.27,14-14,14h-232c-7.73,0-14-6.27-14-14v-136
		C113.52,29.56,119.79,23.29,127.52,23.29z"/>
	<path class="st15" d="M127.52,23.29h232c7.73,0,14,6.27,14,14v136c0,7.73-6.27,14-14,14h-232c-7.73,0-14-6.27-14-14v-136
		C113.52,29.56,119.79,23.29,127.52,23.29z"/>
	<path class="st15" d="M127.52,23.29h232c7.73,0,14,6.27,14,14v136c0,7.73-6.27,14-14,14h-232c-7.73,0-14-6.27-14-14v-136
		C113.52,29.56,119.79,23.29,127.52,23.29z"/>
	<path class="st16" d="M127.52,23.29h232c7.73,0,14,6.27,14,14v127.02c0,7.73-6.27,14-14,14h-232c-7.73,0-14-6.27-14-14V37.29
		C113.52,29.56,119.79,23.29,127.52,23.29z"/>
	<path class="st17" d="M127.52,27.29h232c7.73,0,14,6.27,14,14v132l0,0v-136c0-7.73-6.27-14-14-14h-232c-7.73,0-14,6.27-14,14v4
		C113.52,33.55,119.79,27.29,127.52,27.29z"/>
	<g class="st18">
		<polygon class="st19" points="192.75,187.29 208.82,187.29 327.97,23.29 311.9,23.29 		"/>
		<polygon class="st19" points="218.09,187.29 223.03,187.29 342.19,23.29 337.24,23.29 		"/>
	</g>
	<path class="st12" d="M127.52,23.29h232c7.73,0,14,6.27,14,14v136c0,7.73-6.27,14-14,14h-232c-7.73,0-14-6.27-14-14v-136
		C113.52,29.56,119.79,23.29,127.52,23.29z"/>
	<rect x="131.52" y="41.77" class="st20" width="224" height="126"/>
	<g class="st21">
		<polygon class="st19" points="207.93,167.77 224,167.77 315.55,41.77 299.48,41.77 		"/>
		<polygon class="st19" points="233.27,167.77 238.22,167.77 329.76,41.77 324.82,41.77 		"/>
	</g>
	<rect x="131.52" y="41.77" class="st22" width="224" height="126"/>
	<path class="st23" d="M127.52,187.29h232c7.73,0,14,6.27,14,14v144c0,7.73-6.27,14-14,14h-232c-7.73,0-14-6.27-14-14v-144
		C113.52,193.56,119.79,187.29,127.52,187.29z"/>
	<path class="st10" d="M369.52,201.29v144c0,5.52-4.48,10-10,10h-232c-5.52,0-10-4.48-10-10v-144c0-5.52,4.48-10,10-10h232
		C365.05,191.29,369.52,195.77,369.52,201.29z"/>
	<path class="st23" d="M227.47,351.47h32.1c2.21,0,4,1.79,4,4v3.82l0,0h-40.1l0,0v-3.82C223.47,353.26,225.26,351.47,227.47,351.47z
		"/>
	<path class="st12" d="M127.52,187.29h232c7.73,0,14,6.27,14,14v144c0,7.73-6.27,14-14,14h-232c-7.73,0-14-6.27-14-14v-144
		C113.52,193.56,119.79,187.29,127.52,187.29z"/>
	<path class="st23" d="M131.52,200.71h224c1.66,0,3,1.34,3,3v86c0,1.66-1.34,3-3,3h-224c-1.66,0-3-1.34-3-3v-86
		C128.52,202.05,129.87,200.71,131.52,200.71z"/>
	<path class="st24" d="M160.61,270.21h12c0.55,0,1,0.45,1,1v12c0,0.55-0.45,1-1,1h-12c-0.55,0-1-0.45-1-1v-12
		C159.61,270.66,160.06,270.21,160.61,270.21z"/>
	<path class="st24" d="M138.97,270.21h12c0.55,0,1,0.45,1,1v12c0,0.55-0.45,1-1,1h-12c-0.55,0-1-0.45-1-1v-12
		C137.97,270.66,138.42,270.21,138.97,270.21z"/>
	<path class="st24" d="M182.25,270.21h98.55c0.55,0,1,0.45,1,1v12c0,0.55-0.45,1-1,1h-98.55c-0.55,0-1-0.45-1-1v-12
		C181.25,270.66,181.69,270.21,182.25,270.21z"/>
	<path class="st24" d="M290.44,270.21h12c0.55,0,1,0.45,1,1v12c0,0.55-0.45,1-1,1h-12c-0.55,0-1-0.45-1-1v-12
		C289.44,270.66,289.89,270.21,290.44,270.21z"/>
	<path class="st24" d="M326.08,278.08h8c0.55,0,1,0.45,1,1v4.13c0,0.55-0.45,1-1,1h-8c-0.55,0-1-0.45-1-1v-4.13
		C325.08,278.53,325.53,278.08,326.08,278.08z"/>
	<path class="st24" d="M326.08,270.21h8c0.55,0,1,0.45,1,1v4.13c0,0.55-0.45,1-1,1h-8c-0.55,0-1-0.45-1-1v-4.13
		C325.08,270.66,325.53,270.21,326.08,270.21z"/>
	<path class="st24" d="M340.08,278.08h8c0.55,0,1,0.45,1,1v4.13c0,0.55-0.45,1-1,1h-8c-0.55,0-1-0.45-1-1v-4.13
		C339.08,278.53,339.53,278.08,340.08,278.08z"/>
	<path class="st24" d="M312.08,278.08h8c0.55,0,1,0.45,1,1v4.13c0,0.55-0.45,1-1,1h-8c-0.55,0-1-0.45-1-1v-4.13
		C311.08,278.53,311.53,278.08,312.08,278.08z"/>
	<path class="st24" d="M138.97,250.29h31.64c0.55,0,1,0.45,1,1v12c0,0.55-0.45,1-1,1h-31.64c-0.55,0-1-0.45-1-1v-12
		C137.97,250.74,138.42,250.29,138.97,250.29z"/>
	<path class="st24" d="M180.43,250.29h12c0.55,0,1,0.45,1,1v12c0,0.55-0.45,1-1,1h-12c-0.55,0-1-0.45-1-1v-12
		C179.43,250.74,179.88,250.29,180.43,250.29z"/>
	<path class="st24" d="M202.07,250.29h12c0.55,0,1,0.45,1,1v12c0,0.55-0.45,1-1,1h-12c-0.55,0-1-0.45-1-1v-12
		C201.07,250.74,201.51,250.29,202.07,250.29z"/>
	<path class="st24" d="M223.7,250.29h12c0.55,0,1,0.45,1,1v12c0,0.55-0.45,1-1,1h-12c-0.55,0-1-0.45-1-1v-12
		C222.7,250.74,223.15,250.29,223.7,250.29z"/>
	<path class="st24" d="M245.34,250.29h12c0.55,0,1,0.45,1,1v12c0,0.55-0.45,1-1,1h-12c-0.55,0-1-0.45-1-1v-12
		C244.34,250.74,244.79,250.29,245.34,250.29z"/>
	<path class="st24" d="M266.98,250.29h12c0.55,0,1,0.45,1,1v12c0,0.55-0.45,1-1,1h-12c-0.55,0-1-0.45-1-1v-12
		C265.98,250.74,266.43,250.29,266.98,250.29z"/>
	<path class="st24" d="M288.62,250.29h12c0.55,0,1,0.45,1,1v12c0,0.55-0.45,1-1,1h-12c-0.55,0-1-0.45-1-1v-12
		C287.62,250.74,288.07,250.29,288.62,250.29z"/>
	<path class="st24" d="M312.08,250.29h36c0.55,0,1,0.45,1,1v12c0,0.55-0.45,1-1,1h-36c-0.55,0-1-0.45-1-1v-12
		C311.08,250.74,311.53,250.29,312.08,250.29z"/>
	<path class="st24" d="M172.61,229.81h12c0.55,0,1,0.45,1,1v12c0,0.55-0.45,1-1,1h-12c-0.55,0-1-0.45-1-1v-12
		C171.61,230.26,172.06,229.81,172.61,229.81z"/>
	<path class="st24" d="M138.97,229.81h24c0.55,0,1,0.45,1,1v12c0,0.55-0.45,1-1,1h-24c-0.55,0-1-0.45-1-1v-12
		C137.97,230.26,138.42,229.81,138.97,229.81z"/>
	<path class="st24" d="M194.25,229.81h12c0.55,0,1,0.45,1,1v12c0,0.55-0.45,1-1,1h-12c-0.55,0-1-0.45-1-1v-12
		C193.25,230.26,193.69,229.81,194.25,229.81z"/>
	<path class="st24" d="M215.88,229.81h12c0.55,0,1,0.45,1,1v12c0,0.55-0.45,1-1,1h-12c-0.55,0-1-0.45-1-1v-12
		C214.88,230.26,215.33,229.81,215.88,229.81z"/>
	<path class="st24" d="M237.52,229.81h12c0.55,0,1,0.45,1,1v12c0,0.55-0.45,1-1,1h-12c-0.55,0-1-0.45-1-1v-12
		C236.52,230.26,236.97,229.81,237.52,229.81z"/>
	<path class="st24" d="M259.16,229.81h12c0.55,0,1,0.45,1,1v12c0,0.55-0.45,1-1,1h-12c-0.55,0-1-0.45-1-1v-12
		C258.16,230.26,258.61,229.81,259.16,229.81z"/>
	<path class="st24" d="M280.8,229.81h12c0.55,0,1,0.45,1,1v12c0,0.55-0.45,1-1,1h-12c-0.55,0-1-0.45-1-1v-12
		C279.8,230.26,280.25,229.81,280.8,229.81z"/>
	<path class="st24" d="M302.44,229.81h12c0.55,0,1,0.45,1,1v12c0,0.55-0.45,1-1,1h-12c-0.55,0-1-0.45-1-1v-12
		C301.44,230.26,301.89,229.81,302.44,229.81z"/>
	<path class="st24" d="M324.08,229.81h24c0.55,0,1,0.45,1,1v12c0,0.55-0.45,1-1,1h-24c-0.55,0-1-0.45-1-1v-12
		C323.08,230.26,323.53,229.81,324.08,229.81z"/>
	<path class="st24" d="M160.87,210.21h12c0.55,0,1,0.45,1,1v12c0,0.55-0.45,1-1,1h-12c-0.55,0-1-0.45-1-1v-12
		C159.87,210.66,160.32,210.21,160.87,210.21z"/>
	<path class="st24" d="M138.97,210.21h12c0.55,0,1,0.45,1,1v12c0,0.55-0.45,1-1,1h-12c-0.55,0-1-0.45-1-1v-12
		C137.97,210.66,138.42,210.21,138.97,210.21z"/>
	<path class="st24" d="M182.77,210.21h12c0.55,0,1,0.45,1,1v12c0,0.55-0.45,1-1,1h-12c-0.55,0-1-0.45-1-1v-12
		C181.77,210.66,182.22,210.21,182.77,210.21z"/>
	<path class="st24" d="M204.67,210.21h12c0.55,0,1,0.45,1,1v12c0,0.55-0.45,1-1,1h-12c-0.55,0-1-0.45-1-1v-12
		C203.67,210.66,204.12,210.21,204.67,210.21z"/>
	<path class="st24" d="M226.57,210.21h12c0.55,0,1,0.45,1,1v12c0,0.55-0.45,1-1,1h-12c-0.55,0-1-0.45-1-1v-12
		C225.57,210.66,226.02,210.21,226.57,210.21z"/>
	<path class="st24" d="M248.47,210.21h12c0.55,0,1,0.45,1,1v12c0,0.55-0.45,1-1,1h-12c-0.55,0-1-0.45-1-1v-12
		C247.47,210.66,247.92,210.21,248.47,210.21z"/>
	<path class="st24" d="M270.37,210.21h12c0.55,0,1,0.45,1,1v12c0,0.55-0.45,1-1,1h-12c-0.55,0-1-0.45-1-1v-12
		C269.37,210.66,269.82,210.21,270.37,210.21z"/>
	<path class="st24" d="M292.28,210.21h12c0.55,0,1,0.45,1,1v12c0,0.55-0.45,1-1,1h-12c-0.55,0-1-0.45-1-1v-12
		C291.28,210.66,291.72,210.21,292.28,210.21z"/>
	<path class="st24" d="M314.18,210.21h12c0.55,0,1,0.45,1,1v12c0,0.55-0.45,1-1,1h-12c-0.55,0-1-0.45-1-1v-12
		C313.18,210.66,313.62,210.21,314.18,210.21z"/>
	<path class="st24" d="M336.08,210.21h12c0.55,0,1,0.45,1,1v12c0,0.55-0.45,1-1,1h-12c-0.55,0-1-0.45-1-1v-12
		C335.08,210.66,335.53,210.21,336.08,210.21z"/>
	<path class="st15" d="M160.61,270.21h12c0.55,0,1,0.45,1,1v12c0,0.55-0.45,1-1,1h-12c-0.55,0-1-0.45-1-1v-12
		C159.61,270.66,160.06,270.21,160.61,270.21z"/>
	<path class="st15" d="M138.97,270.21h12c0.55,0,1,0.45,1,1v12c0,0.55-0.45,1-1,1h-12c-0.55,0-1-0.45-1-1v-12
		C137.97,270.66,138.42,270.21,138.97,270.21z"/>
	<path class="st15" d="M182.25,270.21h98.55c0.55,0,1,0.45,1,1v12c0,0.55-0.45,1-1,1h-98.55c-0.55,0-1-0.45-1-1v-12
		C181.25,270.66,181.69,270.21,182.25,270.21z"/>
	<path class="st15" d="M290.44,270.21h12c0.55,0,1,0.45,1,1v12c0,0.55-0.45,1-1,1h-12c-0.55,0-1-0.45-1-1v-12
		C289.44,270.66,289.89,270.21,290.44,270.21z"/>
	<path class="st15" d="M326.08,278.08h8c0.55,0,1,0.45,1,1v4.13c0,0.55-0.45,1-1,1h-8c-0.55,0-1-0.45-1-1v-4.13
		C325.08,278.53,325.53,278.08,326.08,278.08z"/>
	<path class="st15" d="M326.08,270.21h8c0.55,0,1,0.45,1,1v4.13c0,0.55-0.45,1-1,1h-8c-0.55,0-1-0.45-1-1v-4.13
		C325.08,270.66,325.53,270.21,326.08,270.21z"/>
	<path class="st15" d="M340.08,278.08h8c0.55,0,1,0.45,1,1v4.13c0,0.55-0.45,1-1,1h-8c-0.55,0-1-0.45-1-1v-4.13
		C339.08,278.53,339.53,278.08,340.08,278.08z"/>
	<path class="st15" d="M312.08,278.08h8c0.55,0,1,0.45,1,1v4.13c0,0.55-0.45,1-1,1h-8c-0.55,0-1-0.45-1-1v-4.13
		C311.08,278.53,311.53,278.08,312.08,278.08z"/>
	<path class="st15" d="M138.97,250.29h31.64c0.55,0,1,0.45,1,1v12c0,0.55-0.45,1-1,1h-31.64c-0.55,0-1-0.45-1-1v-12
		C137.97,250.74,138.42,250.29,138.97,250.29z"/>
	<path class="st15" d="M180.43,250.29h12c0.55,0,1,0.45,1,1v12c0,0.55-0.45,1-1,1h-12c-0.55,0-1-0.45-1-1v-12
		C179.43,250.74,179.88,250.29,180.43,250.29z"/>
	<path class="st15" d="M202.07,250.29h12c0.55,0,1,0.45,1,1v12c0,0.55-0.45,1-1,1h-12c-0.55,0-1-0.45-1-1v-12
		C201.07,250.74,201.51,250.29,202.07,250.29z"/>
	<path class="st15" d="M223.7,250.29h12c0.55,0,1,0.45,1,1v12c0,0.55-0.45,1-1,1h-12c-0.55,0-1-0.45-1-1v-12
		C222.7,250.74,223.15,250.29,223.7,250.29z"/>
	<path class="st15" d="M245.34,250.29h12c0.55,0,1,0.45,1,1v12c0,0.55-0.45,1-1,1h-12c-0.55,0-1-0.45-1-1v-12
		C244.34,250.74,244.79,250.29,245.34,250.29z"/>
	<path class="st15" d="M266.98,250.29h12c0.55,0,1,0.45,1,1v12c0,0.55-0.45,1-1,1h-12c-0.55,0-1-0.45-1-1v-12
		C265.98,250.74,266.43,250.29,266.98,250.29z"/>
	<path class="st15" d="M288.62,250.29h12c0.55,0,1,0.45,1,1v12c0,0.55-0.45,1-1,1h-12c-0.55,0-1-0.45-1-1v-12
		C287.62,250.74,288.07,250.29,288.62,250.29z"/>
	<path class="st15" d="M312.08,250.29h36c0.55,0,1,0.45,1,1v12c0,0.55-0.45,1-1,1h-36c-0.55,0-1-0.45-1-1v-12
		C311.08,250.74,311.53,250.29,312.08,250.29z"/>
	<path class="st15" d="M172.61,229.81h12c0.55,0,1,0.45,1,1v12c0,0.55-0.45,1-1,1h-12c-0.55,0-1-0.45-1-1v-12
		C171.61,230.26,172.06,229.81,172.61,229.81z"/>
	<path class="st15" d="M138.97,229.81h24c0.55,0,1,0.45,1,1v12c0,0.55-0.45,1-1,1h-24c-0.55,0-1-0.45-1-1v-12
		C137.97,230.26,138.42,229.81,138.97,229.81z"/>
	<path class="st15" d="M194.25,229.81h12c0.55,0,1,0.45,1,1v12c0,0.55-0.45,1-1,1h-12c-0.55,0-1-0.45-1-1v-12
		C193.25,230.26,193.69,229.81,194.25,229.81z"/>
	<path class="st15" d="M215.88,229.81h12c0.55,0,1,0.45,1,1v12c0,0.55-0.45,1-1,1h-12c-0.55,0-1-0.45-1-1v-12
		C214.88,230.26,215.33,229.81,215.88,229.81z"/>
	<path class="st15" d="M237.52,229.81h12c0.55,0,1,0.45,1,1v12c0,0.55-0.45,1-1,1h-12c-0.55,0-1-0.45-1-1v-12
		C236.52,230.26,236.97,229.81,237.52,229.81z"/>
	<path class="st15" d="M259.16,229.81h12c0.55,0,1,0.45,1,1v12c0,0.55-0.45,1-1,1h-12c-0.55,0-1-0.45-1-1v-12
		C258.16,230.26,258.61,229.81,259.16,229.81z"/>
	<path class="st15" d="M280.8,229.81h12c0.55,0,1,0.45,1,1v12c0,0.55-0.45,1-1,1h-12c-0.55,0-1-0.45-1-1v-12
		C279.8,230.26,280.25,229.81,280.8,229.81z"/>
	<path class="st15" d="M302.44,229.81h12c0.55,0,1,0.45,1,1v12c0,0.55-0.45,1-1,1h-12c-0.55,0-1-0.45-1-1v-12
		C301.44,230.26,301.89,229.81,302.44,229.81z"/>
	<path class="st15" d="M324.08,229.81h24c0.55,0,1,0.45,1,1v12c0,0.55-0.45,1-1,1h-24c-0.55,0-1-0.45-1-1v-12
		C323.08,230.26,323.53,229.81,324.08,229.81z"/>
	<path class="st15" d="M160.87,210.21h12c0.55,0,1,0.45,1,1v12c0,0.55-0.45,1-1,1h-12c-0.55,0-1-0.45-1-1v-12
		C159.87,210.66,160.32,210.21,160.87,210.21z"/>
	<path class="st15" d="M138.97,210.21h12c0.55,0,1,0.45,1,1v12c0,0.55-0.45,1-1,1h-12c-0.55,0-1-0.45-1-1v-12
		C137.97,210.66,138.42,210.21,138.97,210.21z"/>
	<path class="st15" d="M182.77,210.21h12c0.55,0,1,0.45,1,1v12c0,0.55-0.45,1-1,1h-12c-0.55,0-1-0.45-1-1v-12
		C181.77,210.66,182.22,210.21,182.77,210.21z"/>
	<path class="st15" d="M204.67,210.21h12c0.55,0,1,0.45,1,1v12c0,0.55-0.45,1-1,1h-12c-0.55,0-1-0.45-1-1v-12
		C203.67,210.66,204.12,210.21,204.67,210.21z"/>
	<path class="st15" d="M226.57,210.21h12c0.55,0,1,0.45,1,1v12c0,0.55-0.45,1-1,1h-12c-0.55,0-1-0.45-1-1v-12
		C225.57,210.66,226.02,210.21,226.57,210.21z"/>
	<path class="st15" d="M248.47,210.21h12c0.55,0,1,0.45,1,1v12c0,0.55-0.45,1-1,1h-12c-0.55,0-1-0.45-1-1v-12
		C247.47,210.66,247.92,210.21,248.47,210.21z"/>
	<path class="st15" d="M270.37,210.21h12c0.55,0,1,0.45,1,1v12c0,0.55-0.45,1-1,1h-12c-0.55,0-1-0.45-1-1v-12
		C269.37,210.66,269.82,210.21,270.37,210.21z"/>
	<path class="st15" d="M292.28,210.21h12c0.55,0,1,0.45,1,1v12c0,0.55-0.45,1-1,1h-12c-0.55,0-1-0.45-1-1v-12
		C291.28,210.66,291.72,210.21,292.28,210.21z"/>
	<path class="st15" d="M314.18,210.21h12c0.55,0,1,0.45,1,1v12c0,0.55-0.45,1-1,1h-12c-0.55,0-1-0.45-1-1v-12
		C313.18,210.66,313.62,210.21,314.18,210.21z"/>
	<path class="st15" d="M336.08,210.21h12c0.55,0,1,0.45,1,1v12c0,0.55-0.45,1-1,1h-12c-0.55,0-1-0.45-1-1v-12
		C335.08,210.66,335.53,210.21,336.08,210.21z"/>
	<path class="st15" d="M158.52,178.31h170l0,0v13.45c0,2.21-1.79,4-4,4h-162c-2.21,0-4-1.79-4-4V178.31L158.52,178.31z"/>
	<rect x="158.52" y="178.31" class="st25" width="170" height="2"/>
	<path class="st26" d="M324.52,191.75h-162c-2.21,0-4-1.79-4-4v4c0,2.21,1.79,4,4,4h162c2.21,0,4-1.79,4-4v-4
		C328.52,189.96,326.73,191.75,324.52,191.75z"/>
	<path class="st27" d="M158.52,178.31h170l0,0v13.45c0,2.21-1.79,4-4,4h-162c-2.21,0-4-1.79-4-4V178.31L158.52,178.31z"/>
	<path class="st23" d="M208.52,297.71h70c1.1,0,2,0.9,2,2v47c0,1.1-0.9,2-2,2h-70c-1.1,0-2-0.9-2-2v-47
		C206.52,298.6,207.42,297.71,208.52,297.71z"/>
	<path class="st24" d="M208.52,297.71h70c1.1,0,2,0.9,2,2v47c0,1.1-0.9,2-2,2h-70c-1.1,0-2-0.9-2-2v-47
		C206.52,298.6,207.42,297.71,208.52,297.71z"/>
	<circle class="st28" cx="243.52" cy="33.44" r="3"/>
	<circle class="st22" cx="243.52" cy="33.44" r="3"/>
	<path class="st19" d="M293.88,54.52h12c0.55,0,1,0.45,1,1l0,0c0,0.55-0.45,1-1,1h-12c-0.55,0-1-0.45-1-1l0,0
		C292.88,54.96,293.33,54.52,293.88,54.52z"/>
	<path class="st19" d="M319.86,54.52h12c0.55,0,1,0.45,1,1l0,0c0,0.55-0.45,1-1,1h-12c-0.55,0-1-0.45-1-1l0,0
		C318.86,54.96,319.31,54.52,319.86,54.52z"/>
	<path class="st19" d="M267.91,54.52h12c0.55,0,1,0.45,1,1l0,0c0,0.55-0.45,1-1,1h-12c-0.55,0-1-0.45-1-1l0,0
		C266.91,54.96,267.36,54.52,267.91,54.52z"/>
	<circle class="st19" cx="150.76" cy="56.04" r="4.84"/>
	<g class="st29">
		<rect x="192.85" y="109" class="st19" width="101.23" height="3.65"/>
		<rect x="205.65" y="96.9" class="st19" width="75.63" height="3.7"/>
	</g>
	<path class="st30" d="M232.12,137.33h28.81c3.03,0,5.48,2.45,5.48,5.48l0,0c0,3.03-2.45,5.48-5.48,5.48h-28.81
		c-3.03,0-5.48-2.45-5.48-5.48l0,0C226.64,139.79,229.09,137.33,232.12,137.33z"/>
	<g class="st0">
		<path class="st31" d="M19.46,333.31l7.72-11.03c0.22-0.31,0.65-0.39,0.96-0.17l7.88,5.51c0.31,0.22,0.39,0.65,0.17,0.96
			l-7.72,11.03c-1.58,2.26-4.7,2.81-6.96,1.23l-0.82-0.57C18.42,338.69,17.87,335.57,19.46,333.31z"/>
		<path class="st31" d="M19.46,333.31l7.72-11.03c0.22-0.31,0.65-0.39,0.96-0.17l7.88,5.51c0.31,0.22,0.39,0.65,0.17,0.96
			l-7.72,11.03c-1.58,2.26-4.7,2.81-6.96,1.23l-0.82-0.57C18.42,338.69,17.87,335.57,19.46,333.31z"/>
		<circle class="st4" cx="49.08" cy="300.92" r="32.58"/>
		<circle class="st4" cx="49.08" cy="300.92" r="32.58"/>
		<circle class="st4" cx="49.08" cy="300.92" r="25.36"/>
		<circle class="st4" cx="49.08" cy="300.92" r="25.36"/>
		<path class="st32" d="M32.51,295.66c0.34-0.76,0.71-1.51,1.08-2.25c1.7-3.33,3.73-6.79,6.98-8.83c2.75-1.73,6.61-2.41,9.59-0.88
			c2.59,1.33,4.15,4.07,6.51,5.77c1.59,0.98,3.25,1.85,4.95,2.61c1.72,0.78,3.09,2.18,3.81,3.92c0.8,2.44-0.52,5.05-0.53,7.62
			c0,1.42,0.39,2.81,1.14,4.02c0.47,0.56,0.78,1.25,0.88,1.98c-0.15,0.95-0.81,1.74-1.71,2.06c-2.63,1.24-5.69,0.79-8.58,0.48
			s-6.09-0.38-8.37,1.42c-0.93,0.86-1.8,1.8-2.59,2.79c-1.25,1.87-3.78,2.38-5.65,1.13c-0.22-0.14-0.42-0.31-0.6-0.49
			c-2.07-1.73-3.87-3.77-5.33-6.04c-1.54-1.92-2.62-4.16-3.17-6.56C30.4,301.43,31.26,298.46,32.51,295.66z"/>
		<circle class="st32" cx="54.21" cy="318.54" r="1.57"/>
		<circle class="st32" cx="50.11" cy="319.12" r="1.09"/>
		<circle class="st32" cx="57.93" cy="317.08" r="0.99"/>
		<circle class="st32" cx="46.67" cy="319.53" r="0.71"/>
		<circle class="st32" cx="61.05" cy="316.04" r="0.43"/>
		<circle class="st32" cx="29.41" cy="294.93" r="1.01"/>
		<circle class="st32" cx="57.01" cy="283.13" r="0.95"/>
		<circle class="st32" cx="63.21" cy="287.83" r="0.86"/>
		<circle class="st32" cx="63.92" cy="290.28" r="0.38"/>
	</g>
	<path class="st10" d="M12.38,325.28l7.72-11.03c0.22-0.31,0.65-0.39,0.96-0.17l7.88,5.51c0.31,0.22,0.39,0.65,0.17,0.96
		l-7.72,11.03c-1.58,2.26-4.7,2.81-6.96,1.23l-0.82-0.57C11.34,330.66,10.79,327.54,12.38,325.28L12.38,325.28z"/>
	<path class="st11" d="M21.06,314.08c-0.31-0.22-0.74-0.14-0.96,0.17l-3.48,4.97c1.33,1.27,2.76,2.44,4.27,3.49
		c1.51,1.05,3.09,2,4.74,2.82l3.48-4.97c0.22-0.31,0.14-0.74-0.17-0.96c0,0,0,0,0,0L21.06,314.08z"/>
	<path class="st12" d="M12.38,325.28l7.72-11.03c0.22-0.31,0.65-0.39,0.96-0.17l7.88,5.51c0.31,0.22,0.39,0.65,0.17,0.96
		l-7.72,11.03c-1.58,2.26-4.7,2.81-6.96,1.23l-0.82-0.57C11.34,330.66,10.79,327.54,12.38,325.28L12.38,325.28z"/>
	<circle class="st10" cx="41.86" cy="292.75" r="32.58"/>
	<circle class="st12" cx="41.86" cy="292.75" r="32.58"/>
	<circle class="st33" cx="41.86" cy="292.75" r="25.36"/>
	<circle class="st27" cx="41.86" cy="292.75" r="25.36"/>
	<path class="st13" d="M25.29,287.48c0.34-0.76,0.71-1.51,1.08-2.25c1.7-3.33,3.73-6.79,6.98-8.83c2.76-1.73,6.61-2.41,9.59-0.88
		c2.59,1.33,4.15,4.07,6.51,5.77c1.59,0.97,3.25,1.84,4.96,2.6c1.72,0.78,3.08,2.18,3.81,3.92c0.8,2.45-0.52,5.05-0.53,7.62
		c0,1.42,0.39,2.81,1.14,4.02c0.47,0.56,0.78,1.25,0.88,1.98c-0.15,0.95-0.81,1.74-1.71,2.06c-2.63,1.24-5.69,0.79-8.58,0.48
		s-6.08-0.38-8.37,1.42c-0.93,0.86-1.8,1.8-2.59,2.79c-1.25,1.87-3.78,2.38-5.65,1.13c-0.22-0.14-0.42-0.31-0.6-0.49
		c-2.07-1.73-3.87-3.77-5.33-6.04c-1.53-1.92-2.62-4.16-3.17-6.55C23.17,293.26,24.04,290.28,25.29,287.48z"/>
	<circle class="st13" cx="46.99" cy="310.37" r="1.57"/>
	<circle class="st13" cx="42.89" cy="310.95" r="1.09"/>
	<circle class="st13" cx="50.71" cy="308.9" r="0.99"/>
	<circle class="st13" cx="39.44" cy="311.36" r="0.71"/>
	<circle class="st13" cx="53.83" cy="307.86" r="0.43"/>
	<circle class="st13" cx="22.19" cy="286.76" r="1.01"/>
	<circle class="st13" cx="49.79" cy="274.96" r="0.95"/>
	<circle class="st13" cx="55.99" cy="279.66" r="0.86"/>
	<circle class="st13" cx="56.7" cy="282.1" r="0.38"/>
	<circle class="st33" cx="44.08" cy="294.84" r="2"/>
	<circle class="st33" cx="37.57" cy="287.16" r="3.5"/>
</g>
</svg>
